%
M48
M72
T01C0.0276
T02C0.0320
T03C0.0360
T04C0.0400
T05C0.0440
T06C0.1102
%
T01
X747Y3177
X3975Y6169
X4763Y8453
X4094Y10303
X2440Y9319
X6889Y6091
X8818Y6445
X12361Y7311
X13424Y6563
X13660Y7154
X15196Y10185
X14251Y11484
X15708Y11642
X19015Y9713
X16810Y7902
X12322Y12547
X12164Y13217
X5550Y17114
X2283Y16051
T02
X1123Y14746
X1123Y13746
X5820Y11398
X8820Y11398
X12569Y18283
X13569Y18283
X14618Y18293
X15618Y18293
T03
X6129Y1603
X5129Y1603
T04
X6267Y4398
X7267Y4398
X8267Y4398
X9267Y4398
X10267Y4398
X12200Y4189
X13200Y4189
X14200Y4189
X15200Y4189
X15200Y3189
X14200Y3189
X13200Y3189
X12200Y3189
X9560Y1622
X8560Y1622
X18424Y4000
X18424Y5000
X18424Y6000
X18424Y7000
X18424Y7992
X18424Y8992
X18424Y11567
X18424Y12567
X18424Y13567
X18424Y14567
X18424Y15567
X18424Y16567
X18424Y17567
X18424Y18567
X10901Y18177
X9901Y18177
X8901Y18177
X7901Y18177
X6901Y18177
X5901Y18177
X4901Y18177
X3901Y18177
X2479Y14740
X2479Y13740
X6779Y13914
X7779Y13914
X8779Y13914
X9779Y13914
X10779Y13914
X10779Y12914
X9779Y12914
X8779Y12914
X7779Y12914
X6779Y12914
T05
X1101Y10736
X1101Y15815
T06
X1692Y17941
X18070Y1681
M30
