G75*
G70*
%OFA0B0*%
%FSLAX24Y24*%
%IPPOS*%
%LPD*%
%AMOC8*
5,1,8,0,0,1.08239X$1,22.5*
%
%ADD10C,0.0000*%
%ADD11C,0.0070*%
%ADD12OC8,0.0520*%
%ADD13C,0.0600*%
%ADD14C,0.0560*%
%ADD15R,0.0709X0.0630*%
%ADD16OC8,0.0600*%
%ADD17R,0.0600X0.0600*%
%ADD18R,0.0591X0.0512*%
%ADD19R,0.0630X0.0710*%
%ADD20R,0.0512X0.0591*%
%ADD21R,0.0866X0.0709*%
%ADD22R,0.0630X0.0460*%
%ADD23R,0.0630X0.0709*%
%ADD24OC8,0.0850*%
%ADD25C,0.0240*%
%ADD26C,0.0413*%
%ADD27C,0.0160*%
%ADD28C,0.0320*%
D10*
X000101Y000110D02*
X000101Y019462D01*
X019650Y019462D01*
X019650Y000110D01*
X000101Y000110D01*
X017519Y001681D02*
X017521Y001728D01*
X017527Y001774D01*
X017537Y001820D01*
X017550Y001865D01*
X017568Y001908D01*
X017589Y001950D01*
X017613Y001990D01*
X017641Y002027D01*
X017672Y002062D01*
X017706Y002095D01*
X017742Y002124D01*
X017781Y002150D01*
X017822Y002173D01*
X017865Y002192D01*
X017909Y002208D01*
X017954Y002220D01*
X018000Y002228D01*
X018047Y002232D01*
X018093Y002232D01*
X018140Y002228D01*
X018186Y002220D01*
X018231Y002208D01*
X018275Y002192D01*
X018318Y002173D01*
X018359Y002150D01*
X018398Y002124D01*
X018434Y002095D01*
X018468Y002062D01*
X018499Y002027D01*
X018527Y001990D01*
X018551Y001950D01*
X018572Y001908D01*
X018590Y001865D01*
X018603Y001820D01*
X018613Y001774D01*
X018619Y001728D01*
X018621Y001681D01*
X018619Y001634D01*
X018613Y001588D01*
X018603Y001542D01*
X018590Y001497D01*
X018572Y001454D01*
X018551Y001412D01*
X018527Y001372D01*
X018499Y001335D01*
X018468Y001300D01*
X018434Y001267D01*
X018398Y001238D01*
X018359Y001212D01*
X018318Y001189D01*
X018275Y001170D01*
X018231Y001154D01*
X018186Y001142D01*
X018140Y001134D01*
X018093Y001130D01*
X018047Y001130D01*
X018000Y001134D01*
X017954Y001142D01*
X017909Y001154D01*
X017865Y001170D01*
X017822Y001189D01*
X017781Y001212D01*
X017742Y001238D01*
X017706Y001267D01*
X017672Y001300D01*
X017641Y001335D01*
X017613Y001372D01*
X017589Y001412D01*
X017568Y001454D01*
X017550Y001497D01*
X017537Y001542D01*
X017527Y001588D01*
X017521Y001634D01*
X017519Y001681D01*
X001141Y017941D02*
X001143Y017988D01*
X001149Y018034D01*
X001159Y018080D01*
X001172Y018125D01*
X001190Y018168D01*
X001211Y018210D01*
X001235Y018250D01*
X001263Y018287D01*
X001294Y018322D01*
X001328Y018355D01*
X001364Y018384D01*
X001403Y018410D01*
X001444Y018433D01*
X001487Y018452D01*
X001531Y018468D01*
X001576Y018480D01*
X001622Y018488D01*
X001669Y018492D01*
X001715Y018492D01*
X001762Y018488D01*
X001808Y018480D01*
X001853Y018468D01*
X001897Y018452D01*
X001940Y018433D01*
X001981Y018410D01*
X002020Y018384D01*
X002056Y018355D01*
X002090Y018322D01*
X002121Y018287D01*
X002149Y018250D01*
X002173Y018210D01*
X002194Y018168D01*
X002212Y018125D01*
X002225Y018080D01*
X002235Y018034D01*
X002241Y017988D01*
X002243Y017941D01*
X002241Y017894D01*
X002235Y017848D01*
X002225Y017802D01*
X002212Y017757D01*
X002194Y017714D01*
X002173Y017672D01*
X002149Y017632D01*
X002121Y017595D01*
X002090Y017560D01*
X002056Y017527D01*
X002020Y017498D01*
X001981Y017472D01*
X001940Y017449D01*
X001897Y017430D01*
X001853Y017414D01*
X001808Y017402D01*
X001762Y017394D01*
X001715Y017390D01*
X001669Y017390D01*
X001622Y017394D01*
X001576Y017402D01*
X001531Y017414D01*
X001487Y017430D01*
X001444Y017449D01*
X001403Y017472D01*
X001364Y017498D01*
X001328Y017527D01*
X001294Y017560D01*
X001263Y017595D01*
X001235Y017632D01*
X001211Y017672D01*
X001190Y017714D01*
X001172Y017757D01*
X001159Y017802D01*
X001149Y017848D01*
X001143Y017894D01*
X001141Y017941D01*
D11*
X001688Y002153D02*
X002215Y002153D01*
X002480Y002021D02*
X002612Y002153D01*
X002876Y002153D01*
X003007Y002021D01*
X003007Y001494D01*
X002876Y001363D01*
X002612Y001363D01*
X002480Y001494D01*
X002480Y002021D01*
X001952Y002153D02*
X001952Y001363D01*
X003272Y001494D02*
X003404Y001363D01*
X003799Y001363D01*
X003799Y002153D01*
X003404Y002153D01*
X003272Y002021D01*
X003272Y001890D01*
X003404Y001758D01*
X003799Y001758D01*
X003404Y001758D02*
X003272Y001626D01*
X003272Y001494D01*
D12*
X005820Y011398D03*
X008820Y011398D03*
X012569Y018283D03*
X013569Y018283D03*
X014618Y018293D03*
X015618Y018293D03*
X001123Y014746D03*
X001123Y013746D03*
D13*
X002179Y013740D02*
X002779Y013740D01*
X002779Y014740D02*
X002179Y014740D01*
X003901Y017877D02*
X003901Y018477D01*
X004901Y018477D02*
X004901Y017877D01*
X005901Y017877D02*
X005901Y018477D01*
X006901Y018477D02*
X006901Y017877D01*
X007901Y017877D02*
X007901Y018477D01*
X008901Y018477D02*
X008901Y017877D01*
X009901Y017877D02*
X009901Y018477D01*
X010901Y018477D02*
X010901Y017877D01*
X018124Y017567D02*
X018724Y017567D01*
X018724Y016567D02*
X018124Y016567D01*
X018124Y015567D02*
X018724Y015567D01*
X018724Y014567D02*
X018124Y014567D01*
X018124Y013567D02*
X018724Y013567D01*
X018724Y012567D02*
X018124Y012567D01*
X018124Y011567D02*
X018724Y011567D01*
X018724Y008992D02*
X018124Y008992D01*
X018124Y007992D02*
X018724Y007992D01*
X018724Y007000D02*
X018124Y007000D01*
X018124Y006000D02*
X018724Y006000D01*
X018724Y005000D02*
X018124Y005000D01*
X018124Y004000D02*
X018724Y004000D01*
X010267Y004098D02*
X010267Y004698D01*
X009267Y004698D02*
X009267Y004098D01*
X008267Y004098D02*
X008267Y004698D01*
X007267Y004698D02*
X007267Y004098D01*
X006267Y004098D02*
X006267Y004698D01*
X008560Y001922D02*
X008560Y001322D01*
X009560Y001322D02*
X009560Y001922D01*
X018124Y018567D02*
X018724Y018567D01*
D14*
X006129Y001883D02*
X006129Y001323D01*
X005129Y001323D02*
X005129Y001883D01*
D15*
X007322Y001799D03*
X007322Y002902D03*
X016928Y013453D03*
X016928Y014555D03*
X015747Y014555D03*
X015747Y015658D03*
X014487Y015579D03*
X014487Y016681D03*
X016692Y017626D03*
X016692Y018729D03*
D16*
X010779Y013914D03*
X009779Y013914D03*
X008779Y013914D03*
X007779Y013914D03*
X006779Y013914D03*
X007779Y012914D03*
X008779Y012914D03*
X009779Y012914D03*
X010779Y012914D03*
X012200Y004189D03*
X013200Y004189D03*
X014200Y004189D03*
X015200Y004189D03*
X015200Y003189D03*
X014200Y003189D03*
X013200Y003189D03*
X012200Y003189D03*
D17*
X006779Y012914D03*
D18*
X005747Y015480D03*
X005747Y016229D03*
X009645Y010835D03*
X009645Y010087D03*
X012007Y009299D03*
X012007Y008551D03*
X016377Y004417D03*
X016377Y003669D03*
D19*
X013748Y001839D03*
X012628Y001839D03*
D20*
X014231Y008414D03*
X014979Y008414D03*
D21*
X007204Y009772D03*
X007204Y011780D03*
D22*
X004881Y010170D03*
X004881Y009570D03*
D23*
X004645Y014319D03*
X003542Y014319D03*
X007597Y015933D03*
X008700Y015933D03*
X008857Y016917D03*
X009960Y016917D03*
D24*
X001101Y015815D03*
X001101Y010736D03*
D25*
X000436Y010809D02*
X000341Y010809D01*
X000436Y011012D02*
X000436Y010461D01*
X000826Y010071D01*
X001377Y010071D01*
X001766Y010461D01*
X001766Y011012D01*
X001377Y011401D01*
X000826Y011401D01*
X000436Y011012D01*
X000472Y011047D02*
X000341Y011047D01*
X000341Y011286D02*
X000710Y011286D01*
X000341Y011524D02*
X004541Y011524D01*
X004541Y011286D02*
X001492Y011286D01*
X001731Y011047D02*
X004541Y011047D01*
X004541Y010809D02*
X001766Y010809D01*
X001766Y010570D02*
X004396Y010570D01*
X004430Y010604D02*
X004362Y010536D01*
X004326Y010448D01*
X004326Y009892D01*
X004335Y009870D01*
X004326Y009848D01*
X004326Y009292D01*
X004362Y009204D01*
X004430Y009137D01*
X004518Y009100D01*
X004521Y009100D01*
X004521Y008836D01*
X004510Y008832D01*
X004384Y008706D01*
X004316Y008542D01*
X004316Y008364D01*
X004384Y008200D01*
X004510Y008074D01*
X004674Y008006D01*
X004852Y008006D01*
X005016Y008074D01*
X005141Y008200D01*
X005209Y008364D01*
X005209Y008424D01*
X005241Y008499D01*
X005241Y009100D01*
X005244Y009100D01*
X005332Y009137D01*
X005399Y009204D01*
X005436Y009292D01*
X005436Y009848D01*
X005427Y009870D01*
X005436Y009892D01*
X005436Y010448D01*
X005399Y010536D01*
X005332Y010604D01*
X005261Y010633D01*
X005261Y014247D01*
X005261Y014588D01*
X005261Y015076D01*
X005316Y015021D01*
X005404Y014985D01*
X005441Y014985D01*
X005447Y014786D01*
X005447Y014728D01*
X005449Y014723D01*
X005449Y014719D01*
X005473Y014665D01*
X005495Y014610D01*
X005499Y014607D01*
X005501Y014603D01*
X005543Y014563D01*
X005585Y014520D01*
X005590Y014518D01*
X005593Y014515D01*
X005648Y014494D01*
X005703Y014471D01*
X005708Y014471D01*
X005712Y014470D01*
X005772Y014471D01*
X006598Y014471D01*
X012868Y014471D01*
X012868Y013989D01*
X012819Y014009D01*
X011892Y014009D01*
X011872Y014015D01*
X011829Y014009D01*
X011786Y014009D01*
X011767Y014001D01*
X011746Y013999D01*
X011708Y013977D01*
X011668Y013960D01*
X011653Y013946D01*
X011635Y013935D01*
X011609Y013901D01*
X011578Y013870D01*
X011570Y013851D01*
X011189Y013359D01*
X011117Y013339D01*
X011028Y013428D01*
X011299Y013698D01*
X011299Y013913D01*
X010779Y013913D01*
X010779Y013914D01*
X010778Y013914D01*
X010778Y013913D01*
X010259Y013913D01*
X009779Y013913D01*
X009779Y013914D01*
X009778Y013914D01*
X009778Y013913D01*
X009259Y013913D01*
X008779Y013913D01*
X008779Y013914D01*
X008778Y013914D01*
X008778Y013913D01*
X008259Y013913D01*
X007779Y013913D01*
X007779Y013394D01*
X007779Y012914D01*
X007778Y012914D01*
X007778Y013394D01*
X007778Y013913D01*
X007779Y013913D01*
X007779Y013914D01*
X007778Y013914D01*
X007778Y014434D01*
X007563Y014434D01*
X007293Y014163D01*
X007002Y014454D01*
X006555Y014454D01*
X006239Y014137D01*
X006239Y013690D01*
X006475Y013454D01*
X006431Y013454D01*
X006343Y013417D01*
X006275Y013349D01*
X006239Y013261D01*
X006239Y012566D01*
X006275Y012478D01*
X006343Y012410D01*
X006431Y012374D01*
X006722Y012374D01*
X006635Y012337D01*
X006567Y012270D01*
X006531Y012182D01*
X006531Y011378D01*
X006567Y011289D01*
X006635Y011222D01*
X006723Y011185D01*
X007685Y011185D01*
X007773Y011222D01*
X007840Y011289D01*
X007877Y011378D01*
X007877Y011716D01*
X008430Y011716D01*
X008320Y011605D01*
X008320Y011191D01*
X008613Y010898D01*
X009027Y010898D01*
X009109Y010981D01*
X009109Y010531D01*
X009146Y010443D01*
X009151Y010438D01*
X009144Y010428D01*
X009129Y010372D01*
X009129Y010095D01*
X009636Y010095D01*
X009636Y010079D01*
X009129Y010079D01*
X009129Y009802D01*
X009144Y009746D01*
X009173Y009696D01*
X009214Y009655D01*
X009264Y009626D01*
X009320Y009611D01*
X009637Y009611D01*
X009637Y010079D01*
X009653Y010079D01*
X009653Y010095D01*
X010160Y010095D01*
X010160Y010372D01*
X010145Y010428D01*
X010139Y010438D01*
X010143Y010443D01*
X010180Y010531D01*
X010180Y011138D01*
X010143Y011227D01*
X010076Y011294D01*
X009988Y011331D01*
X009965Y011331D01*
X009965Y011462D01*
X009916Y011579D01*
X009826Y011669D01*
X009708Y011718D01*
X009581Y011718D01*
X009207Y011718D01*
X009140Y011785D01*
X009140Y012099D01*
X009091Y012217D01*
X009001Y012307D01*
X008884Y012356D01*
X008756Y012356D01*
X007729Y012356D01*
X007685Y012374D01*
X007127Y012374D01*
X007215Y012410D01*
X007282Y012478D01*
X007319Y012566D01*
X007319Y012638D01*
X007563Y012394D01*
X007778Y012394D01*
X007778Y012913D01*
X007779Y012913D01*
X007779Y012394D01*
X007994Y012394D01*
X008264Y012664D01*
X008555Y012374D01*
X009002Y012374D01*
X009279Y012650D01*
X009482Y012446D01*
X009482Y012011D01*
X009531Y011894D01*
X009621Y011804D01*
X009739Y011755D01*
X009866Y011755D01*
X010703Y011755D01*
X010703Y005025D01*
X010573Y005156D01*
X010374Y005238D01*
X010159Y005238D01*
X009961Y005156D01*
X009809Y005004D01*
X009767Y004902D01*
X009725Y005004D01*
X009573Y005156D01*
X009374Y005238D01*
X009159Y005238D01*
X008961Y005156D01*
X008809Y005004D01*
X008767Y004902D01*
X008725Y005004D01*
X008573Y005156D01*
X008374Y005238D01*
X008159Y005238D01*
X007961Y005156D01*
X007809Y005004D01*
X007767Y004902D01*
X007725Y005004D01*
X007627Y005101D01*
X007627Y005363D01*
X008453Y006189D01*
X008503Y006238D01*
X008504Y006240D01*
X008505Y006241D01*
X008532Y006305D01*
X008559Y006370D01*
X008559Y006372D01*
X008560Y006373D01*
X008560Y006444D01*
X008598Y010072D01*
X008599Y010074D01*
X008599Y010143D01*
X008600Y010214D01*
X008599Y010215D01*
X008599Y010217D01*
X008573Y010282D01*
X008547Y010346D01*
X008545Y010348D01*
X008544Y010350D01*
X008495Y010399D01*
X008446Y010449D01*
X008444Y010450D01*
X008443Y010451D01*
X008379Y010477D01*
X008315Y010505D01*
X008313Y010505D01*
X008311Y010506D01*
X008241Y010506D01*
X008171Y010507D01*
X008170Y010506D01*
X007236Y010506D01*
X006186Y010506D01*
X006186Y011057D01*
X006320Y011191D01*
X006320Y011605D01*
X006027Y011898D01*
X005613Y011898D01*
X005320Y011605D01*
X005320Y011191D01*
X005466Y011045D01*
X005466Y010074D01*
X005521Y009942D01*
X005622Y009841D01*
X005754Y009786D01*
X005897Y009786D01*
X006531Y009786D01*
X006531Y009370D01*
X006567Y009281D01*
X006635Y009214D01*
X006723Y009177D01*
X007685Y009177D01*
X007773Y009214D01*
X007840Y009281D01*
X007871Y009355D01*
X007841Y006596D01*
X006962Y005716D01*
X006907Y005584D01*
X006907Y005440D01*
X006907Y005101D01*
X006809Y005004D01*
X006756Y004875D01*
X006749Y004897D01*
X006711Y004970D01*
X006663Y005037D01*
X006606Y005094D01*
X006539Y005143D01*
X006466Y005180D01*
X006389Y005205D01*
X006308Y005218D01*
X006267Y005218D01*
X006267Y004398D01*
X006267Y004398D01*
X006267Y005218D01*
X006226Y005218D01*
X006145Y005205D01*
X006067Y005180D01*
X005994Y005143D01*
X005928Y005094D01*
X005870Y005037D01*
X005822Y004970D01*
X005785Y004897D01*
X005760Y004820D01*
X005747Y004739D01*
X005747Y004398D01*
X006266Y004398D01*
X006266Y004398D01*
X005747Y004398D01*
X005747Y004057D01*
X005760Y003976D01*
X005785Y003898D01*
X005822Y003825D01*
X005870Y003759D01*
X005928Y003701D01*
X005994Y003653D01*
X006067Y003616D01*
X006145Y003591D01*
X006226Y003578D01*
X006267Y003578D01*
X006308Y003578D01*
X006389Y003591D01*
X006466Y003616D01*
X006539Y003653D01*
X006606Y003701D01*
X006663Y003759D01*
X006711Y003825D01*
X006749Y003898D01*
X006756Y003920D01*
X006809Y003792D01*
X006961Y003640D01*
X007159Y003558D01*
X007374Y003558D01*
X007573Y003640D01*
X007725Y003792D01*
X007767Y003894D01*
X007809Y003792D01*
X007961Y003640D01*
X008159Y003558D01*
X008374Y003558D01*
X008573Y003640D01*
X008725Y003792D01*
X008767Y003894D01*
X008809Y003792D01*
X008961Y003640D01*
X009159Y003558D01*
X009374Y003558D01*
X009573Y003640D01*
X009725Y003792D01*
X009767Y003894D01*
X009809Y003792D01*
X009961Y003640D01*
X010159Y003558D01*
X010374Y003558D01*
X010573Y003640D01*
X010703Y003770D01*
X010703Y001902D01*
X010703Y001775D01*
X010751Y001657D01*
X010841Y001567D01*
X010959Y001519D01*
X012073Y001519D01*
X012073Y001436D01*
X012110Y001348D01*
X012177Y001280D01*
X012265Y001244D01*
X012868Y001244D01*
X012868Y000879D01*
X012868Y000751D01*
X012917Y000634D01*
X013007Y000544D01*
X013124Y000495D01*
X015959Y000495D01*
X016086Y000495D01*
X016204Y000544D01*
X016294Y000634D01*
X016343Y000751D01*
X016343Y001785D01*
X016608Y002051D01*
X016550Y001681D01*
X016624Y001212D01*
X016624Y001212D01*
X016840Y000788D01*
X016840Y000788D01*
X017176Y000452D01*
X017176Y000452D01*
X017377Y000350D01*
X000341Y000350D01*
X000341Y017285D01*
X000462Y017048D01*
X000462Y017048D01*
X000462Y017048D01*
X000799Y016711D01*
X001222Y016496D01*
X001692Y016421D01*
X002162Y016496D01*
X002585Y016711D01*
X002922Y017048D01*
X003138Y017471D01*
X003138Y017471D01*
X003212Y017941D01*
X003138Y018411D01*
X002922Y018834D01*
X002922Y018835D02*
X002585Y019171D01*
X002486Y019222D01*
X016206Y019222D01*
X016203Y019219D01*
X016162Y019179D01*
X016133Y019128D01*
X016118Y019072D01*
X016118Y018766D01*
X016654Y018766D01*
X016654Y018691D01*
X016118Y018691D01*
X016118Y018501D01*
X015825Y018793D01*
X015411Y018793D01*
X015118Y018500D01*
X015118Y018086D01*
X015411Y017793D01*
X015825Y017793D01*
X016118Y018086D01*
X016118Y018382D01*
X016133Y018329D01*
X016162Y018278D01*
X016203Y018237D01*
X016253Y018209D01*
X016309Y018194D01*
X016654Y018194D01*
X016654Y018691D01*
X016729Y018691D01*
X016729Y018194D01*
X017075Y018194D01*
X017131Y018209D01*
X017181Y018237D01*
X017222Y018278D01*
X017251Y018329D01*
X017266Y018385D01*
X017266Y018691D01*
X016730Y018691D01*
X016730Y018766D01*
X017266Y018766D01*
X017266Y019072D01*
X017251Y019128D01*
X017222Y019179D01*
X017181Y019219D01*
X017178Y019222D01*
X019410Y019222D01*
X019410Y002357D01*
X019300Y002575D01*
X019300Y002575D01*
X018963Y002911D01*
X018540Y003127D01*
X018540Y003127D01*
X018070Y003201D01*
X017683Y003140D01*
X017721Y003232D01*
X017721Y003671D01*
X017728Y003661D01*
X017785Y003604D01*
X017852Y003555D01*
X017925Y003518D01*
X018002Y003493D01*
X018083Y003480D01*
X018424Y003480D01*
X018424Y004000D01*
X018424Y004000D01*
X018424Y003480D01*
X018765Y003480D01*
X018846Y003493D01*
X018924Y003518D01*
X018997Y003555D01*
X019063Y003604D01*
X019121Y003661D01*
X019169Y003728D01*
X019206Y003801D01*
X019231Y003878D01*
X019244Y003959D01*
X019244Y004000D01*
X018425Y004000D01*
X018425Y004000D01*
X019244Y004000D01*
X019244Y004041D01*
X019231Y004122D01*
X019206Y004200D01*
X019169Y004273D01*
X019121Y004339D01*
X019063Y004397D01*
X018997Y004445D01*
X018924Y004482D01*
X018902Y004489D01*
X019030Y004542D01*
X019182Y004694D01*
X019264Y004893D01*
X019264Y005108D01*
X019182Y005306D01*
X019030Y005458D01*
X018928Y005500D01*
X019030Y005542D01*
X019182Y005694D01*
X019264Y005893D01*
X019264Y006108D01*
X019182Y006306D01*
X019030Y006458D01*
X018928Y006500D01*
X019030Y006542D01*
X019182Y006694D01*
X019264Y006893D01*
X019264Y007108D01*
X019182Y007306D01*
X019030Y007458D01*
X018938Y007496D01*
X019030Y007534D01*
X019182Y007686D01*
X019264Y007885D01*
X019264Y008100D01*
X019182Y008298D01*
X019030Y008450D01*
X018928Y008492D01*
X019030Y008534D01*
X019182Y008686D01*
X019264Y008885D01*
X019264Y009100D01*
X019182Y009298D01*
X019030Y009450D01*
X018832Y009532D01*
X018017Y009532D01*
X017818Y009450D01*
X017666Y009298D01*
X017584Y009100D01*
X017584Y008885D01*
X017666Y008686D01*
X017818Y008534D01*
X017920Y008492D01*
X017818Y008450D01*
X017666Y008298D01*
X017605Y008150D01*
X017582Y008173D01*
X017464Y008222D01*
X017122Y008222D01*
X017063Y008280D01*
X016899Y008348D01*
X016721Y008348D01*
X016557Y008280D01*
X016431Y008155D01*
X016363Y007991D01*
X016363Y007813D01*
X016431Y007649D01*
X016557Y007523D01*
X016721Y007455D01*
X016899Y007455D01*
X017063Y007523D01*
X017081Y007541D01*
X017081Y003428D01*
X016694Y003041D01*
X016737Y003145D01*
X016737Y003181D01*
X016808Y003210D01*
X016876Y003278D01*
X016912Y003366D01*
X016912Y003973D01*
X016883Y004043D01*
X016912Y004114D01*
X016912Y004721D01*
X016876Y004809D01*
X016808Y004877D01*
X016720Y004913D01*
X016658Y004913D01*
X016658Y005948D01*
X016658Y006076D01*
X016609Y006193D01*
X016519Y006283D01*
X016401Y006332D01*
X013812Y006332D01*
X013871Y006474D01*
X013871Y006652D01*
X013834Y006742D01*
X013913Y006775D01*
X014039Y006901D01*
X014107Y007065D01*
X014107Y007243D01*
X014039Y007407D01*
X013980Y007465D01*
X013980Y007878D01*
X014535Y007878D01*
X014623Y007915D01*
X014628Y007919D01*
X014639Y007913D01*
X014694Y007898D01*
X014971Y007898D01*
X014971Y008405D01*
X014987Y008405D01*
X014987Y007898D01*
X015264Y007898D01*
X015320Y007913D01*
X015370Y007942D01*
X015411Y007983D01*
X015440Y008033D01*
X015455Y008089D01*
X015455Y008406D01*
X014988Y008406D01*
X014988Y008421D01*
X015455Y008421D01*
X015455Y008738D01*
X015440Y008794D01*
X015411Y008844D01*
X015370Y008885D01*
X015320Y008914D01*
X015264Y008929D01*
X014987Y008929D01*
X014987Y008422D01*
X014971Y008422D01*
X014971Y008929D01*
X014694Y008929D01*
X014639Y008914D01*
X014628Y008908D01*
X014623Y008912D01*
X014535Y008949D01*
X013980Y008949D01*
X013980Y015082D01*
X013980Y015105D01*
X013998Y015088D01*
X014048Y015059D01*
X014104Y015044D01*
X014450Y015044D01*
X014450Y015541D01*
X014525Y015541D01*
X014525Y015044D01*
X014871Y015044D01*
X014926Y015059D01*
X014977Y015088D01*
X015018Y015129D01*
X015047Y015179D01*
X015062Y015235D01*
X015062Y015541D01*
X014525Y015541D01*
X014525Y015616D01*
X015062Y015616D01*
X015062Y015923D01*
X015047Y015979D01*
X015018Y016029D01*
X014977Y016070D01*
X014926Y016099D01*
X014871Y016114D01*
X014525Y016114D01*
X014525Y015617D01*
X014450Y015617D01*
X014450Y016114D01*
X014104Y016114D01*
X014048Y016099D01*
X013998Y016070D01*
X013957Y016029D01*
X013928Y015979D01*
X013913Y015923D01*
X013913Y015616D01*
X014449Y015616D01*
X014449Y015541D01*
X013913Y015541D01*
X013913Y015346D01*
X013842Y015417D01*
X013724Y015466D01*
X009204Y015466D01*
X009220Y015494D01*
X009235Y015550D01*
X009235Y015896D01*
X008738Y015896D01*
X008738Y015971D01*
X009235Y015971D01*
X009235Y016317D01*
X009232Y016328D01*
X009308Y016360D01*
X009376Y016427D01*
X009412Y016515D01*
X009412Y017320D01*
X009376Y017408D01*
X009308Y017475D01*
X009276Y017489D01*
X009358Y017571D01*
X009401Y017673D01*
X009443Y017571D01*
X009546Y017469D01*
X009510Y017448D01*
X009469Y017407D01*
X009440Y017357D01*
X009425Y017301D01*
X009425Y016955D01*
X009922Y016955D01*
X009922Y016880D01*
X009425Y016880D01*
X009425Y016534D01*
X009440Y016478D01*
X009469Y016428D01*
X009510Y016387D01*
X009560Y016358D01*
X009616Y016343D01*
X009922Y016343D01*
X009922Y016880D01*
X009997Y016880D01*
X009997Y016343D01*
X010304Y016343D01*
X010360Y016358D01*
X010410Y016387D01*
X010451Y016428D01*
X010480Y016478D01*
X010495Y016534D01*
X010495Y016880D01*
X009997Y016880D01*
X009997Y016955D01*
X010495Y016955D01*
X010495Y017301D01*
X010480Y017357D01*
X010451Y017407D01*
X010410Y017448D01*
X010360Y017477D01*
X010304Y017492D01*
X010279Y017492D01*
X010358Y017571D01*
X010412Y017700D01*
X010419Y017678D01*
X010456Y017605D01*
X010504Y017539D01*
X010562Y017481D01*
X010628Y017433D01*
X010701Y017395D01*
X010779Y017370D01*
X010860Y017357D01*
X010900Y017357D01*
X010900Y018177D01*
X010901Y018177D01*
X010901Y018177D01*
X011421Y018177D01*
X011421Y017836D01*
X011408Y017756D01*
X011382Y017678D01*
X011345Y017605D01*
X011297Y017539D01*
X011239Y017481D01*
X011173Y017433D01*
X011100Y017395D01*
X011022Y017370D01*
X010942Y017357D01*
X010901Y017357D01*
X010901Y018177D01*
X011421Y018177D01*
X011421Y018518D01*
X011408Y018599D01*
X011382Y018677D01*
X011345Y018750D01*
X011297Y018816D01*
X011239Y018874D01*
X011173Y018922D01*
X011100Y018959D01*
X011022Y018984D01*
X010942Y018997D01*
X010901Y018997D01*
X010901Y018178D01*
X010900Y018178D01*
X010900Y018997D01*
X010860Y018997D01*
X010779Y018984D01*
X010701Y018959D01*
X010628Y018922D01*
X010562Y018874D01*
X010504Y018816D01*
X010456Y018750D01*
X010419Y018677D01*
X010412Y018655D01*
X010358Y018783D01*
X010206Y018935D01*
X010008Y019017D01*
X009793Y019017D01*
X009595Y018935D01*
X009443Y018783D01*
X009401Y018681D01*
X009358Y018783D01*
X009206Y018935D01*
X009008Y019017D01*
X008793Y019017D01*
X008595Y018935D01*
X008443Y018783D01*
X008401Y018681D01*
X008358Y018783D01*
X008206Y018935D01*
X008008Y019017D01*
X007793Y019017D01*
X007595Y018935D01*
X007443Y018783D01*
X007401Y018681D01*
X007358Y018783D01*
X007206Y018935D01*
X007008Y019017D01*
X006793Y019017D01*
X006595Y018935D01*
X006443Y018783D01*
X006401Y018681D01*
X006358Y018783D01*
X006206Y018935D01*
X006008Y019017D01*
X005793Y019017D01*
X005595Y018935D01*
X005443Y018783D01*
X005401Y018681D01*
X005358Y018783D01*
X005206Y018935D01*
X005008Y019017D01*
X004793Y019017D01*
X004595Y018935D01*
X004443Y018783D01*
X004401Y018681D01*
X004358Y018783D01*
X004206Y018935D01*
X004008Y019017D01*
X003793Y019017D01*
X003595Y018935D01*
X003443Y018783D01*
X003361Y018585D01*
X003361Y017770D01*
X003443Y017571D01*
X003595Y017420D01*
X003793Y017337D01*
X004008Y017337D01*
X004206Y017420D01*
X004358Y017571D01*
X004401Y017673D01*
X004443Y017571D01*
X004541Y017474D01*
X004541Y014913D01*
X004282Y014913D01*
X004194Y014877D01*
X004126Y014809D01*
X004090Y014721D01*
X004090Y013917D01*
X004126Y013829D01*
X004194Y013761D01*
X004282Y013725D01*
X004541Y013725D01*
X004541Y010640D01*
X004518Y010640D01*
X004430Y010604D01*
X004326Y010332D02*
X001637Y010332D01*
X001398Y010093D02*
X004326Y010093D01*
X004329Y009854D02*
X000341Y009854D01*
X000341Y009616D02*
X004326Y009616D01*
X004326Y009377D02*
X000341Y009377D01*
X000341Y009139D02*
X004428Y009139D01*
X004521Y008900D02*
X000341Y008900D01*
X000341Y008662D02*
X004366Y008662D01*
X004316Y008423D02*
X000341Y008423D01*
X000341Y008185D02*
X004399Y008185D01*
X004763Y008453D02*
X004881Y008571D01*
X004881Y009570D01*
X005334Y009139D02*
X007869Y009139D01*
X007866Y008900D02*
X005241Y008900D01*
X005241Y008662D02*
X007863Y008662D01*
X007861Y008423D02*
X005209Y008423D01*
X005126Y008185D02*
X007858Y008185D01*
X007856Y007946D02*
X000341Y007946D01*
X000341Y007708D02*
X007853Y007708D01*
X007851Y007469D02*
X000341Y007469D01*
X000341Y007230D02*
X007848Y007230D01*
X007846Y006992D02*
X000341Y006992D01*
X000341Y006753D02*
X007843Y006753D01*
X007761Y006515D02*
X000341Y006515D01*
X000341Y006276D02*
X007522Y006276D01*
X007283Y006038D02*
X000341Y006038D01*
X000341Y005799D02*
X007045Y005799D01*
X006907Y005561D02*
X000341Y005561D01*
X000341Y005322D02*
X006907Y005322D01*
X006889Y005084D02*
X006616Y005084D01*
X006267Y005084D02*
X006267Y005084D01*
X006267Y004845D02*
X006267Y004845D01*
X006267Y004606D02*
X006267Y004606D01*
X006267Y004397D02*
X006267Y003578D01*
X006267Y004397D01*
X006267Y004397D01*
X006267Y004368D02*
X006267Y004368D01*
X006267Y004129D02*
X006267Y004129D01*
X006267Y003891D02*
X006267Y003891D01*
X006267Y003652D02*
X006267Y003652D01*
X006538Y003652D02*
X006949Y003652D01*
X006939Y003437D02*
X006883Y003422D01*
X006832Y003393D01*
X006791Y003352D01*
X006763Y003302D01*
X006748Y003246D01*
X006748Y002939D01*
X007284Y002939D01*
X007284Y002864D01*
X006748Y002864D01*
X006748Y002558D01*
X006763Y002502D01*
X006791Y002452D01*
X006832Y002411D01*
X006883Y002382D01*
X006939Y002367D01*
X007284Y002367D01*
X007284Y002864D01*
X007359Y002864D01*
X007359Y002367D01*
X007705Y002367D01*
X007761Y002382D01*
X007811Y002411D01*
X007852Y002452D01*
X007881Y002502D01*
X007896Y002558D01*
X007896Y002864D01*
X007360Y002864D01*
X007360Y002939D01*
X007896Y002939D01*
X007896Y003246D01*
X007881Y003302D01*
X007852Y003352D01*
X007811Y003393D01*
X007761Y003422D01*
X007705Y003437D01*
X007359Y003437D01*
X007359Y002939D01*
X007284Y002939D01*
X007284Y003437D01*
X006939Y003437D01*
X006869Y003414D02*
X000341Y003414D01*
X000341Y003652D02*
X005996Y003652D01*
X005789Y003891D02*
X000341Y003891D01*
X000341Y004129D02*
X005747Y004129D01*
X005747Y004368D02*
X000341Y004368D01*
X000341Y004606D02*
X005747Y004606D01*
X005768Y004845D02*
X000341Y004845D01*
X000341Y005084D02*
X005917Y005084D01*
X006745Y003891D02*
X006768Y003891D01*
X007284Y003414D02*
X007359Y003414D01*
X007359Y003175D02*
X007284Y003175D01*
X007284Y002937D02*
X000341Y002937D01*
X000341Y002698D02*
X006748Y002698D01*
X006787Y002460D02*
X000341Y002460D01*
X000341Y002221D02*
X001419Y002221D01*
X001413Y002208D02*
X001413Y002099D01*
X001455Y001997D01*
X001533Y001920D01*
X001634Y001878D01*
X001677Y001878D01*
X001677Y001308D01*
X001719Y001207D01*
X001796Y001129D01*
X001897Y001088D01*
X002007Y001088D01*
X002108Y001129D01*
X002185Y001207D01*
X002227Y001308D01*
X002227Y001387D01*
X002247Y001339D01*
X002324Y001261D01*
X002456Y001129D01*
X002557Y001088D01*
X002667Y001088D01*
X002930Y001088D01*
X003031Y001129D01*
X003109Y001207D01*
X003140Y001238D01*
X003171Y001207D01*
X003248Y001129D01*
X003349Y001088D01*
X003854Y001088D01*
X003955Y001129D01*
X004032Y001207D01*
X004074Y001308D01*
X004074Y001417D01*
X004074Y001703D01*
X004074Y001813D01*
X004074Y002099D01*
X004074Y002208D01*
X004032Y002309D01*
X003955Y002386D01*
X003854Y002428D01*
X003458Y002428D01*
X003349Y002428D01*
X003306Y002410D01*
X003248Y002386D01*
X003246Y002385D01*
X003171Y002309D01*
X003140Y002278D01*
X003109Y002309D01*
X003033Y002385D01*
X003031Y002386D01*
X002973Y002410D01*
X002930Y002428D01*
X002821Y002428D01*
X002667Y002428D01*
X002557Y002428D01*
X002507Y002407D01*
X002456Y002386D01*
X002445Y002375D01*
X002414Y002344D01*
X002371Y002386D01*
X002270Y002428D01*
X001634Y002428D01*
X001533Y002386D01*
X001455Y002309D01*
X001413Y002208D01*
X001470Y001983D02*
X000341Y001983D01*
X000341Y001744D02*
X001677Y001744D01*
X001677Y001505D02*
X000341Y001505D01*
X000341Y001267D02*
X001694Y001267D01*
X002210Y001267D02*
X002319Y001267D01*
X003109Y002309D02*
X003109Y002309D01*
X003171Y002309D02*
X003171Y002309D01*
X003248Y002386D02*
X003248Y002386D01*
X003031Y002386D02*
X003031Y002386D01*
X002456Y002386D02*
X002456Y002386D01*
X002456Y002386D01*
X004069Y002221D02*
X004732Y002221D01*
X004688Y002177D02*
X004609Y001986D01*
X004609Y001219D01*
X004688Y001028D01*
X004834Y000882D01*
X005026Y000803D01*
X005232Y000803D01*
X005424Y000882D01*
X005570Y001028D01*
X005629Y001171D01*
X005688Y001028D01*
X005834Y000882D01*
X006026Y000803D01*
X006232Y000803D01*
X006424Y000882D01*
X006570Y001028D01*
X006642Y001203D01*
X007555Y001203D01*
X007559Y001203D01*
X007563Y001201D01*
X007639Y001203D01*
X007714Y001203D01*
X007718Y001204D01*
X008021Y001211D01*
X008102Y001016D01*
X008254Y000864D01*
X008452Y000782D01*
X008667Y000782D01*
X008866Y000864D01*
X009017Y001016D01*
X009071Y001145D01*
X009078Y001123D01*
X009115Y001050D01*
X009163Y000983D01*
X009221Y000926D01*
X009287Y000877D01*
X009360Y000840D01*
X009438Y000815D01*
X009519Y000802D01*
X009559Y000802D01*
X009559Y001622D01*
X009560Y001622D01*
X009560Y001622D01*
X010080Y001622D01*
X010080Y001281D01*
X010067Y001200D01*
X010042Y001123D01*
X010004Y001050D01*
X009956Y000983D01*
X009898Y000926D01*
X009832Y000877D01*
X009759Y000840D01*
X009681Y000815D01*
X009601Y000802D01*
X009560Y000802D01*
X009560Y001622D01*
X010080Y001622D01*
X010080Y001963D01*
X010067Y002044D01*
X010042Y002122D01*
X010004Y002195D01*
X009956Y002261D01*
X009898Y002319D01*
X009832Y002367D01*
X009759Y002404D01*
X009681Y002429D01*
X009601Y002442D01*
X009560Y002442D01*
X009560Y001623D01*
X009559Y001623D01*
X009559Y002442D01*
X009519Y002442D01*
X009438Y002429D01*
X009360Y002404D01*
X009287Y002367D01*
X009221Y002319D01*
X009163Y002261D01*
X009115Y002195D01*
X009078Y002122D01*
X009071Y002100D01*
X009017Y002228D01*
X008866Y002380D01*
X008667Y002462D01*
X008452Y002462D01*
X008254Y002380D01*
X008102Y002228D01*
X008020Y002030D01*
X008020Y002011D01*
X007916Y002009D01*
X007916Y002162D01*
X007880Y002250D01*
X007812Y002318D01*
X007724Y002354D01*
X006920Y002354D01*
X006832Y002318D01*
X006764Y002250D01*
X006728Y002162D01*
X006728Y002002D01*
X006642Y002002D01*
X006570Y002177D01*
X006424Y002323D01*
X006232Y002402D01*
X006026Y002402D01*
X005834Y002323D01*
X005688Y002177D01*
X005629Y002034D01*
X005570Y002177D01*
X005424Y002323D01*
X005232Y002402D01*
X005026Y002402D01*
X004834Y002323D01*
X004688Y002177D01*
X004609Y001983D02*
X004074Y001983D01*
X004074Y001744D02*
X004609Y001744D01*
X004609Y001505D02*
X004074Y001505D01*
X004057Y001267D02*
X004609Y001267D01*
X004688Y001028D02*
X000341Y001028D01*
X000341Y000790D02*
X008434Y000790D01*
X008685Y000790D02*
X012868Y000790D01*
X012868Y001028D02*
X009989Y001028D01*
X010077Y001267D02*
X012210Y001267D01*
X012073Y001505D02*
X010080Y001505D01*
X010080Y001744D02*
X010716Y001744D01*
X010703Y001983D02*
X010077Y001983D01*
X009985Y002221D02*
X010703Y002221D01*
X010703Y002460D02*
X008673Y002460D01*
X008446Y002460D02*
X007857Y002460D01*
X007896Y002698D02*
X010703Y002698D01*
X010703Y002937D02*
X007360Y002937D01*
X007359Y002698D02*
X007284Y002698D01*
X007284Y002460D02*
X007359Y002460D01*
X007892Y002221D02*
X008099Y002221D01*
X009020Y002221D02*
X009134Y002221D01*
X009559Y002221D02*
X009560Y002221D01*
X009559Y001983D02*
X009560Y001983D01*
X009559Y001744D02*
X009560Y001744D01*
X009559Y001505D02*
X009560Y001505D01*
X009559Y001267D02*
X009560Y001267D01*
X009559Y001028D02*
X009560Y001028D01*
X009130Y001028D02*
X009022Y001028D01*
X008097Y001028D02*
X006570Y001028D01*
X005688Y001028D02*
X005570Y001028D01*
X005526Y002221D02*
X005732Y002221D01*
X006526Y002221D02*
X006752Y002221D01*
X006748Y003175D02*
X000341Y003175D01*
X000341Y000551D02*
X012999Y000551D01*
X012073Y002159D02*
X011343Y002159D01*
X011343Y004590D01*
X011401Y004590D01*
X011837Y004590D01*
X011660Y004413D01*
X011660Y003965D01*
X011950Y003675D01*
X011680Y003404D01*
X011680Y003189D01*
X011680Y002974D01*
X011984Y002669D01*
X012200Y002669D01*
X012415Y002669D01*
X012686Y002940D01*
X012868Y002757D01*
X012868Y002434D01*
X012265Y002434D01*
X012177Y002397D01*
X012110Y002330D01*
X012073Y002241D01*
X012073Y002159D01*
X012073Y002221D02*
X011343Y002221D01*
X011343Y002460D02*
X012868Y002460D01*
X012868Y002698D02*
X012444Y002698D01*
X012200Y002698D02*
X012200Y002698D01*
X012200Y002669D02*
X012200Y003189D01*
X012200Y003189D01*
X012200Y002669D01*
X011955Y002698D02*
X011343Y002698D01*
X011343Y002937D02*
X011717Y002937D01*
X011680Y003175D02*
X011343Y003175D01*
X011343Y003414D02*
X011689Y003414D01*
X011680Y003189D02*
X012199Y003189D01*
X011680Y003189D01*
X011928Y003652D02*
X011343Y003652D01*
X011343Y003891D02*
X011734Y003891D01*
X011660Y004129D02*
X011343Y004129D01*
X011343Y004368D02*
X011660Y004368D01*
X010703Y005084D02*
X010645Y005084D01*
X010703Y005322D02*
X007627Y005322D01*
X007825Y005561D02*
X010703Y005561D01*
X010703Y005799D02*
X008063Y005799D01*
X008302Y006038D02*
X010703Y006038D01*
X010703Y006276D02*
X008520Y006276D01*
X008561Y006515D02*
X010703Y006515D01*
X010703Y006753D02*
X008563Y006753D01*
X008566Y006992D02*
X010703Y006992D01*
X010703Y007230D02*
X008568Y007230D01*
X008571Y007469D02*
X010703Y007469D01*
X010703Y007708D02*
X008573Y007708D01*
X008576Y007946D02*
X010703Y007946D01*
X010703Y008185D02*
X008578Y008185D01*
X008581Y008423D02*
X010703Y008423D01*
X010703Y008662D02*
X008583Y008662D01*
X008586Y008900D02*
X010703Y008900D01*
X010703Y009139D02*
X008588Y009139D01*
X008591Y009377D02*
X010703Y009377D01*
X010703Y009616D02*
X009988Y009616D01*
X009969Y009611D02*
X010025Y009626D01*
X010075Y009655D01*
X010116Y009696D01*
X010145Y009746D01*
X010160Y009802D01*
X010160Y010079D01*
X009653Y010079D01*
X009653Y009611D01*
X009969Y009611D01*
X010160Y009854D02*
X010703Y009854D01*
X010703Y010093D02*
X009653Y010093D01*
X009636Y010093D02*
X008599Y010093D01*
X008596Y009854D02*
X009129Y009854D01*
X009302Y009616D02*
X008594Y009616D01*
X008239Y010146D02*
X007164Y010146D01*
X005826Y010146D01*
X005826Y011398D01*
X005820Y011398D01*
X005464Y011047D02*
X005261Y011047D01*
X005261Y010809D02*
X005466Y010809D01*
X005466Y010570D02*
X005365Y010570D01*
X005436Y010332D02*
X005466Y010332D01*
X005466Y010093D02*
X005436Y010093D01*
X005433Y009854D02*
X005608Y009854D01*
X005436Y009616D02*
X006531Y009616D01*
X006531Y009377D02*
X005436Y009377D01*
X004881Y010170D02*
X004901Y010190D01*
X004901Y014319D01*
X004901Y014516D01*
X004901Y018177D01*
X005401Y017673D02*
X005358Y017571D01*
X005261Y017474D01*
X005261Y016593D01*
X005276Y016619D01*
X005317Y016660D01*
X005367Y016689D01*
X005423Y016704D01*
X005739Y016704D01*
X005739Y016237D01*
X005755Y016237D01*
X005755Y016704D01*
X006071Y016704D01*
X006127Y016689D01*
X006177Y016660D01*
X006214Y016623D01*
X006214Y017063D01*
X006037Y017349D01*
X006008Y017337D01*
X005793Y017337D01*
X005595Y017420D01*
X005443Y017571D01*
X005401Y017673D01*
X005275Y017488D02*
X005526Y017488D01*
X005261Y017249D02*
X006099Y017249D01*
X006214Y017011D02*
X005261Y017011D01*
X005261Y016772D02*
X006214Y016772D01*
X005755Y016534D02*
X005739Y016534D01*
X005739Y016295D02*
X005755Y016295D01*
X004541Y016295D02*
X001534Y016295D01*
X001369Y016460D02*
X001102Y016460D01*
X001102Y015816D01*
X001101Y015816D01*
X001101Y016460D01*
X000834Y016460D01*
X000456Y016082D01*
X000456Y015815D01*
X000456Y015548D01*
X000834Y015170D01*
X000869Y015170D01*
X000643Y014945D01*
X000643Y014746D01*
X001123Y014746D01*
X001123Y014746D01*
X000643Y014746D01*
X000643Y014547D01*
X000925Y014266D01*
X001123Y014266D01*
X001123Y014745D01*
X001124Y014745D01*
X001124Y014266D01*
X001322Y014266D01*
X001603Y014547D01*
X001603Y014746D01*
X001603Y014945D01*
X001373Y015175D01*
X001746Y015548D01*
X001746Y015815D01*
X001102Y015815D01*
X001102Y015815D01*
X001746Y015815D01*
X001746Y016082D01*
X001369Y016460D01*
X001222Y016496D02*
X001222Y016496D01*
X001147Y016534D02*
X000341Y016534D01*
X000341Y016772D02*
X000738Y016772D01*
X000799Y016711D02*
X000799Y016711D01*
X000499Y017011D02*
X000341Y017011D01*
X000341Y017249D02*
X000360Y017249D01*
X000341Y016295D02*
X000669Y016295D01*
X000456Y016057D02*
X000341Y016057D01*
X000341Y015818D02*
X000456Y015818D01*
X000456Y015815D02*
X001101Y015815D01*
X000456Y015815D01*
X000456Y015579D02*
X000341Y015579D01*
X000341Y015341D02*
X000663Y015341D01*
X000801Y015102D02*
X000341Y015102D01*
X000341Y014864D02*
X000643Y014864D01*
X000643Y014625D02*
X000341Y014625D01*
X000341Y014387D02*
X000804Y014387D01*
X000916Y014246D02*
X000623Y013953D01*
X000623Y013539D01*
X000916Y013246D01*
X001331Y013246D01*
X001471Y013386D01*
X001770Y013386D01*
X001873Y013283D01*
X002072Y013200D01*
X002887Y013200D01*
X003085Y013283D01*
X003237Y013434D01*
X003319Y013633D01*
X003319Y013745D01*
X003505Y013745D01*
X003505Y014281D01*
X003580Y014281D01*
X003580Y013745D01*
X003886Y013745D01*
X003942Y013760D01*
X003992Y013789D01*
X004033Y013830D01*
X004062Y013880D01*
X004077Y013936D01*
X004077Y014281D01*
X003580Y014281D01*
X003580Y014357D01*
X003505Y014357D01*
X003505Y014893D01*
X003276Y014893D01*
X003261Y014940D01*
X003224Y015013D01*
X003176Y015079D01*
X003118Y015137D01*
X003052Y015185D01*
X002979Y015222D01*
X002901Y015247D01*
X002820Y015260D01*
X002480Y015260D01*
X002480Y014741D01*
X002479Y014741D01*
X002479Y015260D01*
X002138Y015260D01*
X002058Y015247D01*
X001980Y015222D01*
X001907Y015185D01*
X001841Y015137D01*
X001783Y015079D01*
X001735Y015013D01*
X001697Y014940D01*
X001672Y014862D01*
X001659Y014781D01*
X001659Y014740D01*
X001659Y014699D01*
X001672Y014619D01*
X001697Y014541D01*
X001735Y014468D01*
X001783Y014402D01*
X001841Y014344D01*
X001907Y014296D01*
X001980Y014258D01*
X002002Y014251D01*
X001873Y014198D01*
X001781Y014106D01*
X001471Y014106D01*
X001331Y014246D01*
X000916Y014246D01*
X000819Y014148D02*
X000341Y014148D01*
X000341Y013910D02*
X000623Y013910D01*
X000623Y013671D02*
X000341Y013671D01*
X000341Y013433D02*
X000730Y013433D01*
X000341Y013194D02*
X004541Y013194D01*
X004541Y012956D02*
X000341Y012956D01*
X000341Y012717D02*
X004541Y012717D01*
X004541Y012478D02*
X000341Y012478D01*
X000341Y012240D02*
X004541Y012240D01*
X004541Y012001D02*
X000341Y012001D01*
X000341Y011763D02*
X004541Y011763D01*
X005261Y011763D02*
X005477Y011763D01*
X005261Y012001D02*
X006531Y012001D01*
X006531Y011763D02*
X006162Y011763D01*
X006320Y011524D02*
X006531Y011524D01*
X006571Y011286D02*
X006320Y011286D01*
X006186Y011047D02*
X008464Y011047D01*
X008320Y011286D02*
X007837Y011286D01*
X007877Y011524D02*
X008320Y011524D01*
X009140Y012001D02*
X009486Y012001D01*
X009482Y012240D02*
X009068Y012240D01*
X009107Y012478D02*
X009450Y012478D01*
X009720Y011763D02*
X009162Y011763D01*
X009939Y011524D02*
X010703Y011524D01*
X010703Y011286D02*
X010084Y011286D01*
X010180Y011047D02*
X010703Y011047D01*
X010703Y010809D02*
X010180Y010809D01*
X010180Y010570D02*
X010703Y010570D01*
X010703Y010332D02*
X010160Y010332D01*
X009653Y009854D02*
X009637Y009854D01*
X009637Y009616D02*
X009653Y009616D01*
X009129Y010332D02*
X008553Y010332D01*
X008239Y010146D02*
X008200Y006445D01*
X007267Y005512D01*
X007267Y004398D01*
X007766Y003891D02*
X007768Y003891D01*
X007949Y003652D02*
X007585Y003652D01*
X007775Y003414D02*
X010703Y003414D01*
X010703Y003652D02*
X010585Y003652D01*
X010703Y003175D02*
X007896Y003175D01*
X008585Y003652D02*
X008949Y003652D01*
X008768Y003891D02*
X008766Y003891D01*
X009585Y003652D02*
X009949Y003652D01*
X009768Y003891D02*
X009766Y003891D01*
X009645Y005084D02*
X009889Y005084D01*
X008889Y005084D02*
X008645Y005084D01*
X007889Y005084D02*
X007645Y005084D01*
X012199Y003189D02*
X012199Y003189D01*
X012200Y003175D02*
X012200Y003175D01*
X012200Y002937D02*
X012200Y002937D01*
X012683Y002937D02*
X012689Y002937D01*
X015200Y003189D02*
X016326Y003189D01*
X016377Y003217D02*
X016377Y003669D01*
X016737Y003175D02*
X016828Y003175D01*
X016912Y003414D02*
X017066Y003414D01*
X017081Y003652D02*
X016912Y003652D01*
X016912Y003891D02*
X017081Y003891D01*
X017081Y004129D02*
X016912Y004129D01*
X016912Y004368D02*
X017081Y004368D01*
X017081Y004606D02*
X016912Y004606D01*
X016840Y004845D02*
X017081Y004845D01*
X017081Y005084D02*
X016658Y005084D01*
X016658Y005322D02*
X017081Y005322D01*
X017081Y005561D02*
X016658Y005561D01*
X016658Y005799D02*
X017081Y005799D01*
X017081Y006038D02*
X016658Y006038D01*
X016526Y006276D02*
X017081Y006276D01*
X017081Y006515D02*
X013871Y006515D01*
X013861Y006753D02*
X017081Y006753D01*
X017081Y006992D02*
X014077Y006992D01*
X014107Y007230D02*
X017081Y007230D01*
X017081Y007469D02*
X016933Y007469D01*
X016687Y007469D02*
X013980Y007469D01*
X013980Y007708D02*
X016407Y007708D01*
X016363Y007946D02*
X015374Y007946D01*
X015455Y008185D02*
X016461Y008185D01*
X015455Y008423D02*
X017791Y008423D01*
X017619Y008185D02*
X017554Y008185D01*
X017691Y008662D02*
X015455Y008662D01*
X015344Y008900D02*
X017584Y008900D01*
X017600Y009139D02*
X013980Y009139D01*
X013980Y009377D02*
X017746Y009377D01*
X019057Y008423D02*
X019410Y008423D01*
X019410Y008185D02*
X019229Y008185D01*
X019264Y007946D02*
X019410Y007946D01*
X019410Y007708D02*
X019191Y007708D01*
X019003Y007469D02*
X019410Y007469D01*
X019410Y007230D02*
X019213Y007230D01*
X019264Y006992D02*
X019410Y006992D01*
X019410Y006753D02*
X019206Y006753D01*
X019410Y006515D02*
X018964Y006515D01*
X019194Y006276D02*
X019410Y006276D01*
X019410Y006038D02*
X019264Y006038D01*
X019225Y005799D02*
X019410Y005799D01*
X019410Y005561D02*
X019048Y005561D01*
X019166Y005322D02*
X019410Y005322D01*
X019410Y005084D02*
X019264Y005084D01*
X019244Y004845D02*
X019410Y004845D01*
X019410Y004606D02*
X019094Y004606D01*
X019092Y004368D02*
X019410Y004368D01*
X019410Y004129D02*
X019229Y004129D01*
X019233Y003891D02*
X019410Y003891D01*
X019410Y003652D02*
X019112Y003652D01*
X019410Y003414D02*
X017721Y003414D01*
X017721Y003652D02*
X017737Y003652D01*
X017697Y003175D02*
X017906Y003175D01*
X018070Y003201D02*
X018070Y003201D01*
X018234Y003175D02*
X019410Y003175D01*
X019410Y002937D02*
X018913Y002937D01*
X018963Y002911D02*
X018963Y002911D01*
X019176Y002698D02*
X019410Y002698D01*
X019410Y002460D02*
X019358Y002460D01*
X018424Y003652D02*
X018424Y003652D01*
X018424Y003891D02*
X018424Y003891D01*
X016598Y001983D02*
X016540Y001983D01*
X016560Y001744D02*
X016343Y001744D01*
X016550Y001681D02*
X016550Y001681D01*
X016578Y001505D02*
X016343Y001505D01*
X016343Y001267D02*
X016616Y001267D01*
X016718Y001028D02*
X016343Y001028D01*
X016343Y000790D02*
X016839Y000790D01*
X017077Y000551D02*
X016211Y000551D01*
X014987Y007946D02*
X014971Y007946D01*
X014971Y008185D02*
X014987Y008185D01*
X014971Y008423D02*
X014987Y008423D01*
X014971Y008662D02*
X014987Y008662D01*
X014971Y008900D02*
X014987Y008900D01*
X013980Y009616D02*
X019410Y009616D01*
X019410Y009854D02*
X013980Y009854D01*
X013980Y010093D02*
X019410Y010093D01*
X019410Y010332D02*
X013980Y010332D01*
X013980Y010570D02*
X019410Y010570D01*
X019410Y010809D02*
X013980Y010809D01*
X013980Y011047D02*
X017968Y011047D01*
X018017Y011027D02*
X018832Y011027D01*
X019030Y011109D01*
X019182Y011261D01*
X019264Y011460D01*
X019264Y011674D01*
X019182Y011873D01*
X019030Y012025D01*
X018928Y012067D01*
X019030Y012109D01*
X019182Y012261D01*
X019264Y012460D01*
X019264Y012674D01*
X019182Y012873D01*
X019030Y013025D01*
X018928Y013067D01*
X019030Y013109D01*
X019182Y013261D01*
X019264Y013460D01*
X019264Y013674D01*
X019182Y013873D01*
X019030Y014025D01*
X018928Y014067D01*
X019030Y014109D01*
X019182Y014261D01*
X019264Y014460D01*
X019264Y014674D01*
X019182Y014873D01*
X019030Y015025D01*
X018928Y015067D01*
X019030Y015109D01*
X019182Y015261D01*
X019264Y015460D01*
X019264Y015674D01*
X019182Y015873D01*
X019030Y016025D01*
X018928Y016067D01*
X019030Y016109D01*
X019182Y016261D01*
X019264Y016460D01*
X019264Y016674D01*
X019182Y016873D01*
X019030Y017025D01*
X018928Y017067D01*
X019030Y017109D01*
X019182Y017261D01*
X019264Y017460D01*
X019264Y017674D01*
X019182Y017873D01*
X019030Y018025D01*
X018902Y018078D01*
X018924Y018085D01*
X018997Y018122D01*
X019063Y018170D01*
X019121Y018228D01*
X019169Y018295D01*
X019206Y018367D01*
X019231Y018445D01*
X019244Y018526D01*
X019244Y018567D01*
X018425Y018567D01*
X018425Y018567D01*
X019244Y018567D01*
X019244Y018608D01*
X019231Y018689D01*
X019206Y018767D01*
X019169Y018840D01*
X019121Y018906D01*
X019063Y018964D01*
X018997Y019012D01*
X018924Y019049D01*
X018846Y019074D01*
X018765Y019087D01*
X018424Y019087D01*
X018083Y019087D01*
X018002Y019074D01*
X017925Y019049D01*
X017852Y019012D01*
X017785Y018964D01*
X017728Y018906D01*
X017679Y018840D01*
X017642Y018767D01*
X017617Y018689D01*
X017604Y018608D01*
X017604Y018567D01*
X017604Y018526D01*
X017617Y018445D01*
X017642Y018367D01*
X017679Y018295D01*
X017728Y018228D01*
X017785Y018170D01*
X017852Y018122D01*
X017925Y018085D01*
X017947Y018078D01*
X017821Y018026D01*
X017271Y018026D01*
X017250Y018077D01*
X017182Y018145D01*
X017094Y018181D01*
X016290Y018181D01*
X016202Y018145D01*
X016134Y018077D01*
X016098Y017989D01*
X016098Y017263D01*
X016134Y017175D01*
X016202Y017108D01*
X016270Y017079D01*
X015066Y017081D01*
X015045Y017132D01*
X014978Y017200D01*
X014889Y017236D01*
X014085Y017236D01*
X013997Y017200D01*
X013929Y017132D01*
X013893Y017044D01*
X013893Y016319D01*
X013929Y016230D01*
X013997Y016163D01*
X014085Y016126D01*
X014889Y016126D01*
X014978Y016163D01*
X015045Y016230D01*
X015066Y016281D01*
X017660Y016278D01*
X017666Y016261D01*
X017818Y016109D01*
X017920Y016067D01*
X017818Y016025D01*
X017764Y015970D01*
X016341Y015977D01*
X016341Y016020D01*
X016305Y016109D01*
X016237Y016176D01*
X016149Y016213D01*
X015345Y016213D01*
X015257Y016176D01*
X015189Y016109D01*
X015153Y016020D01*
X015153Y015295D01*
X015189Y015207D01*
X015257Y015139D01*
X015345Y015103D01*
X016149Y015103D01*
X016237Y015139D01*
X016275Y015177D01*
X017757Y015170D01*
X017818Y015109D01*
X017920Y015067D01*
X017818Y015025D01*
X017716Y014922D01*
X017521Y014921D01*
X017486Y015006D01*
X017418Y015074D01*
X017330Y015110D01*
X016526Y015110D01*
X016438Y015074D01*
X016370Y015006D01*
X016334Y014918D01*
X016334Y014193D01*
X016370Y014104D01*
X016438Y014037D01*
X016526Y014000D01*
X017330Y014000D01*
X017418Y014037D01*
X017486Y014104D01*
X017522Y014193D01*
X017522Y014201D01*
X017725Y014203D01*
X017818Y014109D01*
X017920Y014067D01*
X017818Y014025D01*
X017666Y013873D01*
X017584Y013674D01*
X017584Y013460D01*
X017666Y013261D01*
X017818Y013109D01*
X017920Y013067D01*
X017818Y013025D01*
X017666Y012873D01*
X017584Y012674D01*
X017584Y012460D01*
X017666Y012261D01*
X017818Y012109D01*
X017920Y012067D01*
X017818Y012025D01*
X017666Y011873D01*
X017584Y011674D01*
X017584Y011460D01*
X017666Y011261D01*
X017818Y011109D01*
X018017Y011027D01*
X017656Y011286D02*
X013980Y011286D01*
X013980Y011524D02*
X017584Y011524D01*
X017621Y011763D02*
X013980Y011763D01*
X013980Y012001D02*
X017795Y012001D01*
X017688Y012240D02*
X013980Y012240D01*
X013980Y012478D02*
X017584Y012478D01*
X017602Y012717D02*
X013980Y012717D01*
X013980Y012956D02*
X016450Y012956D01*
X016439Y012962D02*
X016489Y012933D01*
X016545Y012918D01*
X016891Y012918D01*
X016891Y013415D01*
X016966Y013415D01*
X016966Y012918D01*
X017311Y012918D01*
X017367Y012933D01*
X017418Y012962D01*
X017459Y013003D01*
X017487Y013053D01*
X017502Y013109D01*
X017502Y013415D01*
X016966Y013415D01*
X016966Y013490D01*
X017502Y013490D01*
X017502Y013797D01*
X017487Y013853D01*
X017459Y013903D01*
X017418Y013944D01*
X017367Y013973D01*
X017311Y013988D01*
X016966Y013988D01*
X016966Y013491D01*
X016891Y013491D01*
X016891Y013988D01*
X016545Y013988D01*
X016489Y013973D01*
X016439Y013944D01*
X016398Y013903D01*
X016369Y013853D01*
X016354Y013797D01*
X016354Y013490D01*
X016890Y013490D01*
X016890Y013415D01*
X016354Y013415D01*
X016354Y013109D01*
X016369Y013053D01*
X016398Y013003D01*
X016439Y012962D01*
X016354Y013194D02*
X013980Y013194D01*
X013980Y013433D02*
X016890Y013433D01*
X016966Y013433D02*
X017595Y013433D01*
X017584Y013671D02*
X017502Y013671D01*
X017452Y013910D02*
X017703Y013910D01*
X017779Y014148D02*
X017504Y014148D01*
X016966Y013910D02*
X016891Y013910D01*
X016891Y013671D02*
X016966Y013671D01*
X016966Y013194D02*
X016891Y013194D01*
X016891Y012956D02*
X016966Y012956D01*
X017406Y012956D02*
X017749Y012956D01*
X017734Y013194D02*
X017502Y013194D01*
X016354Y013671D02*
X013980Y013671D01*
X013980Y013910D02*
X016405Y013910D01*
X016236Y014064D02*
X016277Y014105D01*
X016306Y014155D01*
X016321Y014211D01*
X016321Y014518D01*
X015785Y014518D01*
X015785Y014593D01*
X016321Y014593D01*
X016321Y014899D01*
X016306Y014955D01*
X016277Y015005D01*
X016236Y015046D01*
X016186Y015075D01*
X016130Y015090D01*
X015785Y015090D01*
X015785Y014593D01*
X015710Y014593D01*
X015710Y015090D01*
X015364Y015090D01*
X015308Y015075D01*
X015258Y015046D01*
X015217Y015005D01*
X015188Y014955D01*
X015173Y014899D01*
X015173Y014593D01*
X015709Y014593D01*
X015709Y014518D01*
X015173Y014518D01*
X015173Y014211D01*
X015188Y014155D01*
X015217Y014105D01*
X015258Y014064D01*
X015308Y014035D01*
X015364Y014020D01*
X015710Y014020D01*
X015710Y014518D01*
X015785Y014518D01*
X015785Y014020D01*
X016130Y014020D01*
X016186Y014035D01*
X016236Y014064D01*
X016302Y014148D02*
X016352Y014148D01*
X016334Y014387D02*
X016321Y014387D01*
X016321Y014625D02*
X016334Y014625D01*
X016321Y014864D02*
X016334Y014864D01*
X016507Y015102D02*
X014991Y015102D01*
X015062Y015341D02*
X015153Y015341D01*
X015153Y015579D02*
X014525Y015579D01*
X014449Y015579D02*
X009235Y015579D01*
X009235Y015818D02*
X013913Y015818D01*
X013985Y016057D02*
X009235Y016057D01*
X009235Y016295D02*
X013903Y016295D01*
X013893Y016534D02*
X010494Y016534D01*
X010495Y016772D02*
X013893Y016772D01*
X013893Y017011D02*
X010495Y017011D01*
X010495Y017249D02*
X016103Y017249D01*
X016098Y017488D02*
X011247Y017488D01*
X011398Y017726D02*
X016098Y017726D01*
X016098Y017965D02*
X015997Y017965D01*
X016118Y018203D02*
X016272Y018203D01*
X016654Y018203D02*
X016729Y018203D01*
X016729Y018442D02*
X016654Y018442D01*
X016654Y018681D02*
X016729Y018681D01*
X017266Y018681D02*
X017616Y018681D01*
X017604Y018567D02*
X018424Y018567D01*
X017604Y018567D01*
X017618Y018442D02*
X017266Y018442D01*
X017112Y018203D02*
X017752Y018203D01*
X018424Y018567D02*
X018424Y018567D01*
X018424Y019087D01*
X018424Y018567D01*
X018424Y018567D01*
X018424Y018681D02*
X018424Y018681D01*
X018424Y018919D02*
X018424Y018919D01*
X017741Y018919D02*
X017266Y018919D01*
X017234Y019158D02*
X019410Y019158D01*
X019410Y018919D02*
X019108Y018919D01*
X019233Y018681D02*
X019410Y018681D01*
X019410Y018442D02*
X019230Y018442D01*
X019096Y018203D02*
X019410Y018203D01*
X019410Y017965D02*
X019090Y017965D01*
X019243Y017726D02*
X019410Y017726D01*
X019410Y017488D02*
X019264Y017488D01*
X019170Y017249D02*
X019410Y017249D01*
X019410Y017011D02*
X019044Y017011D01*
X019224Y016772D02*
X019410Y016772D01*
X019410Y016534D02*
X019264Y016534D01*
X019196Y016295D02*
X019410Y016295D01*
X019410Y016057D02*
X018953Y016057D01*
X019205Y015818D02*
X019410Y015818D01*
X019410Y015579D02*
X019264Y015579D01*
X019215Y015341D02*
X019410Y015341D01*
X019410Y015102D02*
X019013Y015102D01*
X019186Y014864D02*
X019410Y014864D01*
X019410Y014625D02*
X019264Y014625D01*
X019234Y014387D02*
X019410Y014387D01*
X019410Y014148D02*
X019069Y014148D01*
X019145Y013910D02*
X019410Y013910D01*
X019410Y013671D02*
X019264Y013671D01*
X019253Y013433D02*
X019410Y013433D01*
X019410Y013194D02*
X019115Y013194D01*
X019099Y012956D02*
X019410Y012956D01*
X019410Y012717D02*
X019247Y012717D01*
X019264Y012478D02*
X019410Y012478D01*
X019410Y012240D02*
X019161Y012240D01*
X019054Y012001D02*
X019410Y012001D01*
X019410Y011763D02*
X019228Y011763D01*
X019264Y011524D02*
X019410Y011524D01*
X019410Y011286D02*
X019192Y011286D01*
X019410Y011047D02*
X018880Y011047D01*
X019103Y009377D02*
X019410Y009377D01*
X019410Y009139D02*
X019248Y009139D01*
X019264Y008900D02*
X019410Y008900D01*
X019410Y008662D02*
X019157Y008662D01*
X015785Y014148D02*
X015710Y014148D01*
X015710Y014387D02*
X015785Y014387D01*
X015785Y014625D02*
X015710Y014625D01*
X015710Y014864D02*
X015785Y014864D01*
X015173Y014864D02*
X013980Y014864D01*
X013980Y014625D02*
X015173Y014625D01*
X015173Y014387D02*
X013980Y014387D01*
X013980Y014148D02*
X015192Y014148D01*
X014525Y015102D02*
X014450Y015102D01*
X014450Y015341D02*
X014525Y015341D01*
X014525Y015818D02*
X014450Y015818D01*
X014450Y016057D02*
X014525Y016057D01*
X014990Y016057D02*
X015168Y016057D01*
X015153Y015818D02*
X015062Y015818D01*
X013983Y015102D02*
X013980Y015102D01*
X012868Y014387D02*
X011041Y014387D01*
X010994Y014434D02*
X010779Y014434D01*
X010779Y013914D01*
X011299Y013914D01*
X011299Y014129D01*
X010994Y014434D01*
X010778Y014434D02*
X010563Y014434D01*
X010279Y014149D01*
X009994Y014434D01*
X009779Y014434D01*
X009779Y013914D01*
X010259Y013914D01*
X010778Y013914D01*
X010778Y014434D01*
X010778Y014387D02*
X010779Y014387D01*
X010778Y014148D02*
X010779Y014148D01*
X010516Y014387D02*
X010041Y014387D01*
X009779Y014387D02*
X009778Y014387D01*
X009778Y014434D02*
X009563Y014434D01*
X009279Y014149D01*
X008994Y014434D01*
X008779Y014434D01*
X008779Y013914D01*
X009259Y013914D01*
X009778Y013914D01*
X009778Y014434D01*
X009778Y014148D02*
X009779Y014148D01*
X009516Y014387D02*
X009041Y014387D01*
X008779Y014387D02*
X008778Y014387D01*
X008778Y014434D02*
X008563Y014434D01*
X008279Y014149D01*
X007994Y014434D01*
X007779Y014434D01*
X007779Y013914D01*
X008259Y013914D01*
X008778Y013914D01*
X008778Y014434D01*
X008778Y014148D02*
X008779Y014148D01*
X008516Y014387D02*
X008041Y014387D01*
X007779Y014387D02*
X007778Y014387D01*
X007778Y014148D02*
X007779Y014148D01*
X007778Y013910D02*
X007779Y013910D01*
X007778Y013671D02*
X007779Y013671D01*
X007778Y013433D02*
X007779Y013433D01*
X007778Y013194D02*
X007779Y013194D01*
X007778Y012956D02*
X007779Y012956D01*
X007778Y012717D02*
X007779Y012717D01*
X007778Y012478D02*
X007779Y012478D01*
X008079Y012478D02*
X008450Y012478D01*
X007478Y012478D02*
X007282Y012478D01*
X006555Y012240D02*
X005261Y012240D01*
X005261Y012478D02*
X006275Y012478D01*
X006239Y012717D02*
X005261Y012717D01*
X005261Y012956D02*
X006239Y012956D01*
X006239Y013194D02*
X005261Y013194D01*
X005261Y013433D02*
X006380Y013433D01*
X006257Y013671D02*
X005261Y013671D01*
X005261Y013910D02*
X006239Y013910D01*
X006250Y014148D02*
X005261Y014148D01*
X005261Y014387D02*
X006488Y014387D01*
X007069Y014387D02*
X007516Y014387D01*
X008125Y015466D02*
X008152Y015531D01*
X008152Y016335D01*
X008116Y016424D01*
X008048Y016491D01*
X007980Y016519D01*
X007984Y016603D01*
X008124Y017385D01*
X008206Y017420D01*
X008358Y017571D01*
X008401Y017673D01*
X008443Y017571D01*
X008503Y017512D01*
X008495Y017512D01*
X008406Y017475D01*
X008339Y017408D01*
X008302Y017320D01*
X008302Y016515D01*
X008311Y016495D01*
X008300Y016493D01*
X008250Y016464D01*
X008209Y016423D01*
X008180Y016372D01*
X008165Y016317D01*
X008165Y015971D01*
X008662Y015971D01*
X008662Y015896D01*
X008165Y015896D01*
X008165Y015550D01*
X008180Y015494D01*
X008196Y015466D01*
X008125Y015466D01*
X008152Y015579D02*
X008165Y015579D01*
X008152Y015818D02*
X008165Y015818D01*
X008152Y016057D02*
X008165Y016057D01*
X008152Y016295D02*
X008165Y016295D01*
X008302Y016534D02*
X007981Y016534D01*
X008014Y016772D02*
X008302Y016772D01*
X008302Y017011D02*
X008057Y017011D01*
X008100Y017249D02*
X008302Y017249D01*
X008275Y017488D02*
X008437Y017488D01*
X008857Y016917D02*
X008901Y016917D01*
X008901Y018177D01*
X009278Y017488D02*
X009526Y017488D01*
X009425Y017249D02*
X009412Y017249D01*
X009412Y017011D02*
X009425Y017011D01*
X009412Y016772D02*
X009425Y016772D01*
X009412Y016534D02*
X009425Y016534D01*
X009922Y016534D02*
X009997Y016534D01*
X009997Y016772D02*
X009922Y016772D01*
X010318Y017488D02*
X010555Y017488D01*
X010900Y017488D02*
X010901Y017488D01*
X010900Y017726D02*
X010901Y017726D01*
X010900Y017965D02*
X010901Y017965D01*
X010900Y018203D02*
X010901Y018203D01*
X010900Y018442D02*
X010901Y018442D01*
X010900Y018681D02*
X010901Y018681D01*
X010900Y018919D02*
X010901Y018919D01*
X010624Y018919D02*
X010222Y018919D01*
X010401Y018681D02*
X010421Y018681D01*
X011177Y018919D02*
X016118Y018919D01*
X016118Y018681D02*
X015938Y018681D01*
X016150Y019158D02*
X002599Y019158D01*
X002585Y019171D02*
X002585Y019171D01*
X002837Y018919D02*
X003579Y018919D01*
X003400Y018681D02*
X003000Y018681D01*
X002922Y018834D02*
X002922Y018835D01*
X003122Y018442D02*
X003361Y018442D01*
X003138Y018411D02*
X003138Y018411D01*
X003170Y018203D02*
X003361Y018203D01*
X003361Y017965D02*
X003208Y017965D01*
X003178Y017726D02*
X003379Y017726D01*
X003526Y017488D02*
X003140Y017488D01*
X003024Y017249D02*
X004541Y017249D01*
X004526Y017488D02*
X004275Y017488D01*
X004541Y017011D02*
X002885Y017011D01*
X002922Y017048D02*
X002922Y017048D01*
X002646Y016772D02*
X004541Y016772D01*
X004541Y016534D02*
X002237Y016534D01*
X002585Y016711D02*
X002585Y016711D01*
X001746Y016057D02*
X004541Y016057D01*
X004541Y015818D02*
X001746Y015818D01*
X001746Y015579D02*
X004541Y015579D01*
X004541Y015341D02*
X001539Y015341D01*
X001446Y015102D02*
X001806Y015102D01*
X001673Y014864D02*
X001603Y014864D01*
X001603Y014746D02*
X001124Y014746D01*
X001124Y014746D01*
X001603Y014746D01*
X001659Y014740D02*
X002479Y014740D01*
X001659Y014740D01*
X001671Y014625D02*
X001603Y014625D01*
X001443Y014387D02*
X001797Y014387D01*
X001824Y014148D02*
X001428Y014148D01*
X001124Y014387D02*
X001123Y014387D01*
X001123Y014625D02*
X001124Y014625D01*
X001123Y013746D02*
X002474Y013746D01*
X002479Y013740D01*
X003235Y013433D02*
X004541Y013433D01*
X004541Y013671D02*
X003319Y013671D01*
X003505Y013910D02*
X003580Y013910D01*
X003580Y014148D02*
X003505Y014148D01*
X003580Y014357D02*
X004077Y014357D01*
X004077Y014702D01*
X004062Y014758D01*
X004033Y014808D01*
X003992Y014849D01*
X003942Y014878D01*
X003886Y014893D01*
X003580Y014893D01*
X003580Y014357D01*
X003580Y014387D02*
X003505Y014387D01*
X003505Y014625D02*
X003580Y014625D01*
X003580Y014864D02*
X003505Y014864D01*
X003153Y015102D02*
X004541Y015102D01*
X004181Y014864D02*
X003967Y014864D01*
X004077Y014625D02*
X004090Y014625D01*
X004077Y014387D02*
X004090Y014387D01*
X004077Y014148D02*
X004090Y014148D01*
X004070Y013910D02*
X004093Y013910D01*
X004645Y014319D02*
X004901Y014319D01*
X005261Y014625D02*
X005489Y014625D01*
X005445Y014864D02*
X005261Y014864D01*
X007597Y015933D02*
X007625Y016642D01*
X007901Y018177D01*
X008222Y018919D02*
X008579Y018919D01*
X009222Y018919D02*
X009579Y018919D01*
X011381Y018681D02*
X012288Y018681D01*
X012370Y018763D02*
X012089Y018482D01*
X012089Y018283D01*
X012089Y018084D01*
X012370Y017803D01*
X012569Y017803D01*
X012569Y018283D01*
X012569Y018283D01*
X012569Y017803D01*
X012768Y017803D01*
X013049Y018084D01*
X013049Y018283D01*
X012570Y018283D01*
X012570Y018283D01*
X013049Y018283D01*
X013049Y018482D01*
X012768Y018763D01*
X012569Y018763D01*
X012370Y018763D01*
X012569Y018763D02*
X012569Y018284D01*
X012569Y018284D01*
X012569Y018763D01*
X012569Y018681D02*
X012569Y018681D01*
X012569Y018442D02*
X012569Y018442D01*
X012569Y018283D02*
X012569Y018283D01*
X012089Y018283D01*
X012569Y018283D01*
X012569Y018203D02*
X012569Y018203D01*
X012569Y017965D02*
X012569Y017965D01*
X012209Y017965D02*
X011421Y017965D01*
X011421Y018203D02*
X012089Y018203D01*
X012089Y018442D02*
X011421Y018442D01*
X012851Y018681D02*
X013259Y018681D01*
X013362Y018783D02*
X013069Y018490D01*
X013069Y018076D01*
X013362Y017783D01*
X013776Y017783D01*
X014069Y018076D01*
X014069Y018490D01*
X013776Y018783D01*
X013362Y018783D01*
X013069Y018442D02*
X013049Y018442D01*
X013049Y018203D02*
X013069Y018203D01*
X013180Y017965D02*
X012930Y017965D01*
X013879Y018681D02*
X014327Y018681D01*
X014420Y018773D02*
X014138Y018492D01*
X014138Y018293D01*
X014138Y018094D01*
X014420Y017813D01*
X014618Y017813D01*
X014618Y018293D01*
X014138Y018293D01*
X014618Y018293D01*
X014618Y018293D01*
X014619Y018293D01*
X014619Y018293D01*
X015098Y018293D01*
X015098Y018094D01*
X014817Y017813D01*
X014619Y017813D01*
X014619Y018293D01*
X015098Y018293D01*
X015098Y018492D01*
X014817Y018773D01*
X014619Y018773D01*
X014619Y018293D01*
X014618Y018293D01*
X014618Y018773D01*
X014420Y018773D01*
X014618Y018681D02*
X014619Y018681D01*
X014618Y018442D02*
X014619Y018442D01*
X014910Y018681D02*
X015299Y018681D01*
X015118Y018442D02*
X015098Y018442D01*
X015098Y018203D02*
X015118Y018203D01*
X015239Y017965D02*
X014969Y017965D01*
X014619Y017965D02*
X014618Y017965D01*
X014618Y018203D02*
X014619Y018203D01*
X014268Y017965D02*
X013958Y017965D01*
X014069Y018203D02*
X014138Y018203D01*
X014138Y018442D02*
X014069Y018442D01*
X016326Y016057D02*
X017895Y016057D01*
X017835Y015102D02*
X017349Y015102D01*
X016928Y014555D02*
X018227Y014567D01*
X018424Y014567D01*
X012868Y014148D02*
X011279Y014148D01*
X011299Y013910D02*
X011616Y013910D01*
X011431Y013671D02*
X011272Y013671D01*
X011246Y013433D02*
X011033Y013433D01*
X009109Y010809D02*
X006186Y010809D01*
X006186Y010570D02*
X009109Y010570D01*
X005320Y011286D02*
X005261Y011286D01*
X005261Y011524D02*
X005320Y011524D01*
X002479Y014740D02*
X002479Y014740D01*
X002479Y014864D02*
X002480Y014864D01*
X002479Y015102D02*
X002480Y015102D01*
X001101Y015815D02*
X001101Y015815D01*
X001101Y015818D02*
X001102Y015818D01*
X001101Y016057D02*
X001102Y016057D01*
X001101Y016295D02*
X001102Y016295D01*
X004222Y018919D02*
X004579Y018919D01*
X005222Y018919D02*
X005579Y018919D01*
X006222Y018919D02*
X006579Y018919D01*
X007222Y018919D02*
X007579Y018919D01*
X000436Y010570D02*
X000341Y010570D01*
X000341Y010332D02*
X000566Y010332D01*
X000341Y010093D02*
X000804Y010093D01*
D26*
X002440Y009319D03*
X004094Y010303D03*
X004763Y008453D03*
X003975Y006169D03*
X006889Y006091D03*
X008818Y006445D03*
X012361Y007311D03*
X013424Y006563D03*
X013660Y007154D03*
X015196Y010185D03*
X014251Y011484D03*
X015708Y011642D03*
X019015Y009713D03*
X016810Y007902D03*
X012322Y012547D03*
X012164Y013217D03*
X005550Y017114D03*
X002283Y016051D03*
X000747Y003177D03*
D27*
X007204Y009772D02*
X007164Y009890D01*
X007164Y010146D01*
X008820Y011398D02*
X009645Y011398D01*
X009645Y010835D01*
X008820Y011398D02*
X008820Y012036D01*
X007204Y012036D01*
X007204Y011780D01*
X007204Y012036D02*
X007125Y012036D01*
X009802Y012075D02*
X009802Y012914D01*
X009779Y012914D01*
X009802Y012075D02*
X011023Y012075D01*
X011023Y001839D01*
X012628Y001839D01*
X013188Y000815D02*
X016023Y000815D01*
X016023Y001917D01*
X017401Y003295D01*
X017401Y007902D01*
X016810Y007902D01*
X016338Y006012D02*
X012755Y006012D01*
X012755Y013689D01*
X011849Y013689D01*
X011377Y013079D01*
X010779Y012914D01*
X011338Y012272D02*
X012164Y013217D01*
X012322Y012547D02*
X011928Y012075D01*
X011928Y009201D01*
X012007Y009201D01*
X012007Y009299D01*
X012007Y008551D02*
X012007Y007980D01*
X011810Y007784D01*
X011830Y005264D01*
X014054Y005264D01*
X014239Y005252D01*
X014200Y004189D01*
X015157Y004229D02*
X015200Y004189D01*
X015157Y004229D02*
X015157Y005618D01*
X012361Y005618D01*
X012361Y007311D01*
X013188Y006799D02*
X013188Y014791D01*
X006534Y014791D01*
X005767Y014791D01*
X005747Y015480D01*
X006534Y014791D02*
X006534Y017154D01*
X005901Y018177D01*
X006901Y018177D02*
X006889Y017063D01*
X006889Y015146D01*
X013660Y015146D01*
X013660Y008335D01*
X014231Y008335D01*
X014231Y008414D01*
X013660Y008335D02*
X013660Y007154D01*
X013188Y006799D02*
X013424Y006563D01*
X013200Y004910D02*
X013200Y004189D01*
X013200Y004910D02*
X011338Y004910D01*
X011338Y012272D01*
X008239Y006977D02*
X008200Y006445D01*
X013200Y003189D02*
X013188Y003122D01*
X013188Y000815D01*
X016326Y003189D02*
X016377Y003217D01*
X016338Y004319D02*
X016397Y004437D01*
X016377Y004417D01*
X016338Y004319D02*
X016338Y006012D01*
D28*
X014200Y003189D02*
X014212Y001839D01*
X013748Y001839D01*
X008560Y001622D02*
X007634Y001603D01*
X007438Y001799D01*
X007322Y001799D01*
X007634Y001603D02*
X006129Y001603D01*
X015747Y015658D02*
X015877Y015579D01*
X018424Y015567D01*
X018424Y016567D02*
X018196Y016559D01*
X018192Y016677D01*
X014487Y016681D01*
X016692Y017626D02*
X018129Y017626D01*
X018424Y017567D01*
M02*
