G75*
G70*
%OFA0B0*%
%FSLAX24Y24*%
%IPPOS*%
%LPD*%
%AMOC8*
5,1,8,0,0,1.08239X$1,22.5*
%
%ADD10C,0.0000*%
%ADD11OC8,0.0560*%
%ADD12C,0.0640*%
%ADD13C,0.0600*%
%ADD14R,0.0749X0.0670*%
%ADD15C,0.1142*%
%ADD16OC8,0.0640*%
%ADD17R,0.0640X0.0640*%
%ADD18R,0.0631X0.0552*%
%ADD19R,0.0670X0.0750*%
%ADD20R,0.0552X0.0631*%
%ADD21R,0.0906X0.0749*%
%ADD22R,0.0670X0.0500*%
%ADD23R,0.0720X0.0060*%
%ADD24R,0.0670X0.0749*%
%ADD25OC8,0.0890*%
D10*
X000101Y000110D02*
X000101Y019462D01*
X019650Y019462D01*
X019650Y000110D01*
X000101Y000110D01*
X017519Y001681D02*
X017521Y001728D01*
X017527Y001774D01*
X017537Y001820D01*
X017550Y001865D01*
X017568Y001908D01*
X017589Y001950D01*
X017613Y001990D01*
X017641Y002027D01*
X017672Y002062D01*
X017706Y002095D01*
X017742Y002124D01*
X017781Y002150D01*
X017822Y002173D01*
X017865Y002192D01*
X017909Y002208D01*
X017954Y002220D01*
X018000Y002228D01*
X018047Y002232D01*
X018093Y002232D01*
X018140Y002228D01*
X018186Y002220D01*
X018231Y002208D01*
X018275Y002192D01*
X018318Y002173D01*
X018359Y002150D01*
X018398Y002124D01*
X018434Y002095D01*
X018468Y002062D01*
X018499Y002027D01*
X018527Y001990D01*
X018551Y001950D01*
X018572Y001908D01*
X018590Y001865D01*
X018603Y001820D01*
X018613Y001774D01*
X018619Y001728D01*
X018621Y001681D01*
X018619Y001634D01*
X018613Y001588D01*
X018603Y001542D01*
X018590Y001497D01*
X018572Y001454D01*
X018551Y001412D01*
X018527Y001372D01*
X018499Y001335D01*
X018468Y001300D01*
X018434Y001267D01*
X018398Y001238D01*
X018359Y001212D01*
X018318Y001189D01*
X018275Y001170D01*
X018231Y001154D01*
X018186Y001142D01*
X018140Y001134D01*
X018093Y001130D01*
X018047Y001130D01*
X018000Y001134D01*
X017954Y001142D01*
X017909Y001154D01*
X017865Y001170D01*
X017822Y001189D01*
X017781Y001212D01*
X017742Y001238D01*
X017706Y001267D01*
X017672Y001300D01*
X017641Y001335D01*
X017613Y001372D01*
X017589Y001412D01*
X017568Y001454D01*
X017550Y001497D01*
X017537Y001542D01*
X017527Y001588D01*
X017521Y001634D01*
X017519Y001681D01*
X001141Y017941D02*
X001143Y017988D01*
X001149Y018034D01*
X001159Y018080D01*
X001172Y018125D01*
X001190Y018168D01*
X001211Y018210D01*
X001235Y018250D01*
X001263Y018287D01*
X001294Y018322D01*
X001328Y018355D01*
X001364Y018384D01*
X001403Y018410D01*
X001444Y018433D01*
X001487Y018452D01*
X001531Y018468D01*
X001576Y018480D01*
X001622Y018488D01*
X001669Y018492D01*
X001715Y018492D01*
X001762Y018488D01*
X001808Y018480D01*
X001853Y018468D01*
X001897Y018452D01*
X001940Y018433D01*
X001981Y018410D01*
X002020Y018384D01*
X002056Y018355D01*
X002090Y018322D01*
X002121Y018287D01*
X002149Y018250D01*
X002173Y018210D01*
X002194Y018168D01*
X002212Y018125D01*
X002225Y018080D01*
X002235Y018034D01*
X002241Y017988D01*
X002243Y017941D01*
X002241Y017894D01*
X002235Y017848D01*
X002225Y017802D01*
X002212Y017757D01*
X002194Y017714D01*
X002173Y017672D01*
X002149Y017632D01*
X002121Y017595D01*
X002090Y017560D01*
X002056Y017527D01*
X002020Y017498D01*
X001981Y017472D01*
X001940Y017449D01*
X001897Y017430D01*
X001853Y017414D01*
X001808Y017402D01*
X001762Y017394D01*
X001715Y017390D01*
X001669Y017390D01*
X001622Y017394D01*
X001576Y017402D01*
X001531Y017414D01*
X001487Y017430D01*
X001444Y017449D01*
X001403Y017472D01*
X001364Y017498D01*
X001328Y017527D01*
X001294Y017560D01*
X001263Y017595D01*
X001235Y017632D01*
X001211Y017672D01*
X001190Y017714D01*
X001172Y017757D01*
X001159Y017802D01*
X001149Y017848D01*
X001143Y017894D01*
X001141Y017941D01*
D11*
X001123Y014746D03*
X001123Y013746D03*
X005820Y011398D03*
X008820Y011398D03*
X012569Y018283D03*
X013569Y018283D03*
X014618Y018293D03*
X015618Y018293D03*
D12*
X018124Y018567D02*
X018724Y018567D01*
X018724Y017567D02*
X018124Y017567D01*
X018124Y016567D02*
X018724Y016567D01*
X018724Y015567D02*
X018124Y015567D01*
X018124Y014567D02*
X018724Y014567D01*
X018724Y013567D02*
X018124Y013567D01*
X018124Y012567D02*
X018724Y012567D01*
X018724Y011567D02*
X018124Y011567D01*
X018124Y008992D02*
X018724Y008992D01*
X018724Y007992D02*
X018124Y007992D01*
X018124Y007000D02*
X018724Y007000D01*
X018724Y006000D02*
X018124Y006000D01*
X018124Y005000D02*
X018724Y005000D01*
X018724Y004000D02*
X018124Y004000D01*
X010267Y004098D02*
X010267Y004698D01*
X009267Y004698D02*
X009267Y004098D01*
X008267Y004098D02*
X008267Y004698D01*
X007267Y004698D02*
X007267Y004098D01*
X006267Y004098D02*
X006267Y004698D01*
X008560Y001922D02*
X008560Y001322D01*
X009560Y001322D02*
X009560Y001922D01*
X002779Y013740D02*
X002179Y013740D01*
X002179Y014740D02*
X002779Y014740D01*
X003901Y017877D02*
X003901Y018477D01*
X004901Y018477D02*
X004901Y017877D01*
X005901Y017877D02*
X005901Y018477D01*
X006901Y018477D02*
X006901Y017877D01*
X007901Y017877D02*
X007901Y018477D01*
X008901Y018477D02*
X008901Y017877D01*
X009901Y017877D02*
X009901Y018477D01*
X010901Y018477D02*
X010901Y017877D01*
D13*
X006129Y001883D02*
X006129Y001323D01*
X005129Y001323D02*
X005129Y001883D01*
D14*
X007322Y001799D03*
X007322Y002902D03*
X016928Y013453D03*
X016928Y014555D03*
X015747Y014555D03*
X015747Y015658D03*
X014487Y015579D03*
X014487Y016681D03*
X016692Y017626D03*
X016692Y018729D03*
D15*
X001692Y017941D03*
X018070Y001681D03*
D16*
X015200Y003189D03*
X015200Y004189D03*
X014200Y004189D03*
X014200Y003189D03*
X013200Y003189D03*
X013200Y004189D03*
X012200Y004189D03*
X012200Y003189D03*
X010779Y012914D03*
X009779Y012914D03*
X008779Y012914D03*
X007779Y012914D03*
X007779Y013914D03*
X008779Y013914D03*
X009779Y013914D03*
X010779Y013914D03*
X006779Y013914D03*
D17*
X006779Y012914D03*
D18*
X005747Y015480D03*
X005747Y016229D03*
X009645Y010835D03*
X009645Y010087D03*
X012007Y009299D03*
X012007Y008551D03*
X016377Y004417D03*
X016377Y003669D03*
D19*
X013748Y001839D03*
X012628Y001839D03*
D20*
X014231Y008414D03*
X014979Y008414D03*
D21*
X007204Y009772D03*
X007204Y011780D03*
D22*
X004881Y010170D03*
X004881Y009570D03*
D23*
X004881Y009870D03*
D24*
X004645Y014319D03*
X003542Y014319D03*
X007597Y015933D03*
X008700Y015933D03*
X008857Y016917D03*
X009960Y016917D03*
D25*
X001101Y015815D03*
X001101Y010736D03*
M02*
