G75*
G70*
%OFA0B0*%
%FSLAX24Y24*%
%IPPOS*%
%LPD*%
%AMOC8*
5,1,8,0,0,1.08239X$1,22.5*
%
%ADD10C,0.0000*%
%ADD11C,0.0030*%
%ADD12C,0.0020*%
%ADD13C,0.0060*%
%ADD14R,0.0150X0.0200*%
%ADD15C,0.0100*%
%ADD16R,0.0827X0.0118*%
%ADD17C,0.0040*%
%ADD18C,0.0080*%
%ADD19C,0.0050*%
%ADD20C,0.0120*%
D10*
X000101Y000110D02*
X000101Y019462D01*
X019650Y019462D01*
X019650Y000110D01*
X000101Y000110D01*
X017519Y001681D02*
X017521Y001728D01*
X017527Y001774D01*
X017537Y001820D01*
X017550Y001865D01*
X017568Y001908D01*
X017589Y001950D01*
X017613Y001990D01*
X017641Y002027D01*
X017672Y002062D01*
X017706Y002095D01*
X017742Y002124D01*
X017781Y002150D01*
X017822Y002173D01*
X017865Y002192D01*
X017909Y002208D01*
X017954Y002220D01*
X018000Y002228D01*
X018047Y002232D01*
X018093Y002232D01*
X018140Y002228D01*
X018186Y002220D01*
X018231Y002208D01*
X018275Y002192D01*
X018318Y002173D01*
X018359Y002150D01*
X018398Y002124D01*
X018434Y002095D01*
X018468Y002062D01*
X018499Y002027D01*
X018527Y001990D01*
X018551Y001950D01*
X018572Y001908D01*
X018590Y001865D01*
X018603Y001820D01*
X018613Y001774D01*
X018619Y001728D01*
X018621Y001681D01*
X018619Y001634D01*
X018613Y001588D01*
X018603Y001542D01*
X018590Y001497D01*
X018572Y001454D01*
X018551Y001412D01*
X018527Y001372D01*
X018499Y001335D01*
X018468Y001300D01*
X018434Y001267D01*
X018398Y001238D01*
X018359Y001212D01*
X018318Y001189D01*
X018275Y001170D01*
X018231Y001154D01*
X018186Y001142D01*
X018140Y001134D01*
X018093Y001130D01*
X018047Y001130D01*
X018000Y001134D01*
X017954Y001142D01*
X017909Y001154D01*
X017865Y001170D01*
X017822Y001189D01*
X017781Y001212D01*
X017742Y001238D01*
X017706Y001267D01*
X017672Y001300D01*
X017641Y001335D01*
X017613Y001372D01*
X017589Y001412D01*
X017568Y001454D01*
X017550Y001497D01*
X017537Y001542D01*
X017527Y001588D01*
X017521Y001634D01*
X017519Y001681D01*
X001141Y017941D02*
X001143Y017988D01*
X001149Y018034D01*
X001159Y018080D01*
X001172Y018125D01*
X001190Y018168D01*
X001211Y018210D01*
X001235Y018250D01*
X001263Y018287D01*
X001294Y018322D01*
X001328Y018355D01*
X001364Y018384D01*
X001403Y018410D01*
X001444Y018433D01*
X001487Y018452D01*
X001531Y018468D01*
X001576Y018480D01*
X001622Y018488D01*
X001669Y018492D01*
X001715Y018492D01*
X001762Y018488D01*
X001808Y018480D01*
X001853Y018468D01*
X001897Y018452D01*
X001940Y018433D01*
X001981Y018410D01*
X002020Y018384D01*
X002056Y018355D01*
X002090Y018322D01*
X002121Y018287D01*
X002149Y018250D01*
X002173Y018210D01*
X002194Y018168D01*
X002212Y018125D01*
X002225Y018080D01*
X002235Y018034D01*
X002241Y017988D01*
X002243Y017941D01*
X002241Y017894D01*
X002235Y017848D01*
X002225Y017802D01*
X002212Y017757D01*
X002194Y017714D01*
X002173Y017672D01*
X002149Y017632D01*
X002121Y017595D01*
X002090Y017560D01*
X002056Y017527D01*
X002020Y017498D01*
X001981Y017472D01*
X001940Y017449D01*
X001897Y017430D01*
X001853Y017414D01*
X001808Y017402D01*
X001762Y017394D01*
X001715Y017390D01*
X001669Y017390D01*
X001622Y017394D01*
X001576Y017402D01*
X001531Y017414D01*
X001487Y017430D01*
X001444Y017449D01*
X001403Y017472D01*
X001364Y017498D01*
X001328Y017527D01*
X001294Y017560D01*
X001263Y017595D01*
X001235Y017632D01*
X001211Y017672D01*
X001190Y017714D01*
X001172Y017757D01*
X001159Y017802D01*
X001149Y017848D01*
X001143Y017894D01*
X001141Y017941D01*
D11*
X003854Y013825D02*
X003805Y013777D01*
X003805Y013583D01*
X003854Y013535D01*
X003951Y013535D01*
X003999Y013583D01*
X004100Y013535D02*
X004294Y013535D01*
X004197Y013535D02*
X004197Y013825D01*
X004100Y013728D01*
X003999Y013777D02*
X003951Y013825D01*
X003854Y013825D01*
X004395Y013777D02*
X004443Y013825D01*
X004540Y013825D01*
X004588Y013777D01*
X004588Y013728D01*
X004540Y013680D01*
X004588Y013632D01*
X004588Y013583D01*
X004540Y013535D01*
X004443Y013535D01*
X004395Y013583D01*
X004491Y013680D02*
X004540Y013680D01*
X004380Y012544D02*
X004284Y012544D01*
X004235Y012496D01*
X004380Y012544D02*
X004429Y012496D01*
X004429Y012448D01*
X004235Y012254D01*
X004429Y012254D01*
X004183Y012107D02*
X004183Y011816D01*
X004086Y011816D02*
X004280Y011816D01*
X004086Y012010D02*
X004183Y012107D01*
X004134Y012254D02*
X003941Y012254D01*
X004037Y012254D02*
X004037Y012544D01*
X003941Y012448D01*
X003839Y012496D02*
X003791Y012544D01*
X003694Y012544D01*
X003646Y012496D01*
X003646Y012303D01*
X003694Y012254D01*
X003791Y012254D01*
X003839Y012303D01*
X003792Y012107D02*
X003792Y011816D01*
X003985Y011816D01*
X002969Y011784D02*
X002921Y011784D01*
X002728Y011977D01*
X002679Y011977D01*
X002679Y011784D01*
X002728Y011682D02*
X002679Y011634D01*
X002679Y011537D01*
X002728Y011489D01*
X002921Y011489D01*
X002969Y011537D01*
X002969Y011634D01*
X002921Y011682D01*
X001963Y012707D02*
X001673Y012707D01*
X001673Y012852D01*
X001721Y012900D01*
X001818Y012900D01*
X001866Y012852D01*
X001866Y012707D01*
X001866Y012803D02*
X001963Y012900D01*
X001915Y013001D02*
X001963Y013050D01*
X001963Y013146D01*
X001915Y013195D01*
X001818Y013195D01*
X001770Y013146D01*
X001770Y013098D01*
X001818Y013001D01*
X001673Y013001D01*
X001673Y013195D01*
X001986Y010033D02*
X001938Y009985D01*
X001938Y009792D01*
X001986Y009743D01*
X002083Y009743D01*
X002132Y009792D01*
X002233Y009792D02*
X002281Y009743D01*
X002378Y009743D01*
X002426Y009792D01*
X002426Y009840D01*
X002378Y009888D01*
X002330Y009888D01*
X002378Y009888D02*
X002426Y009937D01*
X002426Y009985D01*
X002378Y010033D01*
X002281Y010033D01*
X002233Y009985D01*
X002132Y009985D02*
X002083Y010033D01*
X001986Y010033D01*
X002228Y008346D02*
X002179Y008298D01*
X002179Y008201D01*
X002228Y008153D01*
X002325Y008153D01*
X002373Y008201D01*
X002373Y008298D01*
X002325Y008346D01*
X002228Y008346D01*
X002474Y008346D02*
X002474Y008201D01*
X002522Y008153D01*
X002668Y008153D01*
X002668Y008346D01*
X002769Y008346D02*
X002865Y008346D01*
X002817Y008395D02*
X002817Y008201D01*
X002865Y008153D01*
X004005Y007037D02*
X004005Y006843D01*
X004054Y006795D01*
X004151Y006795D01*
X004199Y006843D01*
X004300Y006940D02*
X004494Y006940D01*
X004445Y006795D02*
X004445Y007085D01*
X004300Y006940D01*
X004199Y007037D02*
X004151Y007085D01*
X004054Y007085D01*
X004005Y007037D01*
X005385Y007118D02*
X005385Y007215D01*
X005434Y007263D01*
X005627Y007070D01*
X005675Y007118D01*
X005675Y007215D01*
X005627Y007263D01*
X005434Y007263D01*
X005385Y007118D02*
X005434Y007070D01*
X005627Y007070D01*
X005675Y006969D02*
X005675Y006775D01*
X005675Y006872D02*
X005385Y006872D01*
X005482Y006775D01*
X005434Y006674D02*
X005385Y006626D01*
X005385Y006529D01*
X005434Y006481D01*
X005627Y006481D01*
X005675Y006529D01*
X005675Y006626D01*
X005627Y006674D01*
X006879Y006667D02*
X006879Y006473D01*
X006927Y006425D01*
X007024Y006425D01*
X007073Y006473D01*
X007174Y006425D02*
X007367Y006425D01*
X007270Y006425D02*
X007270Y006715D01*
X007174Y006619D01*
X007073Y006667D02*
X007024Y006715D01*
X006927Y006715D01*
X006879Y006667D01*
X006864Y005412D02*
X006864Y005218D01*
X006961Y005121D01*
X007058Y005218D01*
X007058Y005412D01*
X007159Y005363D02*
X007159Y005170D01*
X007207Y005121D01*
X007304Y005121D01*
X007353Y005170D01*
X007454Y005170D02*
X007454Y005363D01*
X007502Y005412D01*
X007599Y005412D01*
X007647Y005363D01*
X007647Y005170D02*
X007599Y005121D01*
X007502Y005121D01*
X007454Y005170D01*
X007353Y005363D02*
X007304Y005412D01*
X007207Y005412D01*
X007159Y005363D01*
X006584Y005363D02*
X006584Y005170D01*
X006536Y005121D01*
X006391Y005121D01*
X006391Y005412D01*
X006536Y005412D01*
X006584Y005363D01*
X006290Y005412D02*
X006290Y005121D01*
X006096Y005412D01*
X006096Y005121D01*
X005995Y005170D02*
X005995Y005267D01*
X005898Y005267D01*
X005801Y005363D02*
X005801Y005170D01*
X005850Y005121D01*
X005947Y005121D01*
X005995Y005170D01*
X005995Y005363D02*
X005947Y005412D01*
X005850Y005412D01*
X005801Y005363D01*
X006051Y003717D02*
X006051Y003524D01*
X006051Y003620D02*
X005761Y003620D01*
X005858Y003524D01*
X005809Y003422D02*
X005761Y003374D01*
X005761Y003229D01*
X006051Y003229D01*
X006051Y003374D01*
X006003Y003422D01*
X005809Y003422D01*
X007809Y003447D02*
X007954Y003447D01*
X008003Y003495D01*
X008003Y003592D01*
X007954Y003640D01*
X007809Y003640D01*
X007809Y003350D01*
X007906Y003447D02*
X008003Y003350D01*
X008104Y003350D02*
X008297Y003640D01*
X008399Y003640D02*
X008399Y003350D01*
X008544Y003350D01*
X008592Y003398D01*
X008592Y003592D01*
X008544Y003640D01*
X008399Y003640D01*
X008104Y003640D02*
X008297Y003350D01*
X008912Y003640D02*
X009105Y003640D01*
X009008Y003640D02*
X009008Y003350D01*
X009206Y003350D02*
X009400Y003640D01*
X009501Y003640D02*
X009646Y003640D01*
X009694Y003592D01*
X009694Y003398D01*
X009646Y003350D01*
X009501Y003350D01*
X009501Y003640D01*
X009206Y003640D02*
X009400Y003350D01*
X009935Y003350D02*
X010032Y003350D01*
X009984Y003350D02*
X009984Y003640D01*
X010032Y003640D02*
X009935Y003640D01*
X010132Y003640D02*
X010132Y003350D01*
X010325Y003350D02*
X010132Y003640D01*
X010325Y003640D02*
X010325Y003350D01*
X010523Y003350D02*
X010523Y003640D01*
X010426Y003640D02*
X010620Y003640D01*
X010721Y003543D02*
X010818Y003640D01*
X010818Y003350D01*
X010914Y003350D02*
X010721Y003350D01*
X011353Y003164D02*
X011476Y003287D01*
X011476Y002917D01*
X011353Y002917D02*
X011599Y002917D01*
X012806Y000800D02*
X012757Y000752D01*
X012757Y000558D01*
X012806Y000510D01*
X012902Y000510D01*
X012951Y000558D01*
X012951Y000752D01*
X012902Y000800D01*
X012806Y000800D01*
X013052Y000800D02*
X013052Y000510D01*
X013052Y000655D02*
X013245Y000655D01*
X013346Y000558D02*
X013395Y000510D01*
X013492Y000510D01*
X013540Y000558D01*
X013540Y000607D01*
X013492Y000655D01*
X013443Y000655D01*
X013492Y000655D02*
X013540Y000704D01*
X013540Y000752D01*
X013492Y000800D01*
X013395Y000800D01*
X013346Y000752D01*
X013245Y000800D02*
X013245Y000510D01*
X013641Y000510D02*
X013641Y000800D01*
X013641Y000655D02*
X013835Y000655D01*
X013936Y000558D02*
X013936Y000510D01*
X014129Y000510D01*
X014230Y000510D02*
X014376Y000510D01*
X014424Y000558D01*
X014424Y000607D01*
X014376Y000655D01*
X014230Y000655D01*
X014129Y000752D02*
X013936Y000558D01*
X013835Y000510D02*
X013835Y000800D01*
X013936Y000800D02*
X014129Y000800D01*
X014129Y000752D01*
X014230Y000800D02*
X014230Y000510D01*
X014376Y000655D02*
X014424Y000704D01*
X014424Y000752D01*
X014376Y000800D01*
X014230Y000800D01*
X014820Y000752D02*
X014868Y000800D01*
X014965Y000800D01*
X015013Y000752D01*
X015013Y000704D01*
X014820Y000510D01*
X015013Y000510D01*
X015114Y000558D02*
X015308Y000752D01*
X015308Y000558D01*
X015259Y000510D01*
X015163Y000510D01*
X015114Y000558D01*
X015114Y000752D01*
X015163Y000800D01*
X015259Y000800D01*
X015308Y000752D01*
X015409Y000704D02*
X015506Y000800D01*
X015506Y000510D01*
X015602Y000510D02*
X015409Y000510D01*
X015704Y000510D02*
X015897Y000704D01*
X015897Y000752D01*
X015849Y000800D01*
X015752Y000800D01*
X015704Y000752D01*
X015704Y000510D02*
X015897Y000510D01*
X017501Y005330D02*
X017501Y005475D01*
X017549Y005524D01*
X017646Y005524D01*
X017694Y005475D01*
X017694Y005330D01*
X017694Y005427D02*
X017791Y005524D01*
X017791Y005625D02*
X017743Y005625D01*
X017549Y005818D01*
X017501Y005818D01*
X017501Y005625D01*
X017501Y005330D02*
X017791Y005330D01*
X015311Y005527D02*
X015021Y005527D01*
X015021Y005672D01*
X015069Y005720D01*
X015166Y005720D01*
X015214Y005672D01*
X015214Y005527D01*
X015214Y005624D02*
X015311Y005720D01*
X015311Y005822D02*
X015117Y006015D01*
X015069Y006015D01*
X015021Y005967D01*
X015021Y005870D01*
X015069Y005822D01*
X015311Y005822D02*
X015311Y006015D01*
X009994Y006451D02*
X009800Y006451D01*
X009994Y006644D01*
X009994Y006692D01*
X009945Y006741D01*
X009848Y006741D01*
X009800Y006692D01*
X009699Y006692D02*
X009651Y006741D01*
X009554Y006741D01*
X009505Y006692D01*
X009505Y006499D01*
X009554Y006451D01*
X009651Y006451D01*
X009699Y006499D01*
X005325Y009570D02*
X005131Y009570D01*
X005228Y009570D02*
X005228Y009860D01*
X005131Y009763D01*
X005030Y009811D02*
X005030Y009618D01*
X004982Y009570D01*
X004885Y009570D01*
X004837Y009618D01*
X004837Y009811D01*
X004885Y009860D01*
X004982Y009860D01*
X005030Y009811D01*
X004933Y009666D02*
X005030Y009570D01*
X007044Y011923D02*
X007044Y012213D01*
X007189Y012213D01*
X007237Y012165D01*
X007237Y012068D01*
X007189Y012020D01*
X007044Y012020D01*
X007140Y012020D02*
X007237Y011923D01*
X007338Y011923D02*
X007532Y011923D01*
X007435Y011923D02*
X007435Y012213D01*
X007338Y012117D01*
X006047Y012247D02*
X006047Y012494D01*
X006047Y012371D02*
X005677Y012371D01*
X005800Y012247D01*
X006197Y014603D02*
X006321Y014603D01*
X006259Y014603D02*
X006259Y014974D01*
X006197Y014974D02*
X006321Y014974D01*
X006443Y014912D02*
X006443Y014850D01*
X006504Y014789D01*
X006628Y014789D01*
X006690Y014727D01*
X006690Y014665D01*
X006628Y014603D01*
X006504Y014603D01*
X006443Y014665D01*
X006443Y014912D02*
X006504Y014974D01*
X006628Y014974D01*
X006690Y014912D01*
X006811Y014974D02*
X006996Y014974D01*
X007058Y014912D01*
X007058Y014789D01*
X006996Y014727D01*
X006811Y014727D01*
X006811Y014603D02*
X006811Y014974D01*
X010213Y016788D02*
X010213Y016885D01*
X010310Y016981D01*
X010410Y016981D02*
X010458Y016981D01*
X010458Y016691D01*
X010410Y016691D02*
X010507Y016691D01*
X010606Y016740D02*
X010606Y016836D01*
X010655Y016885D01*
X010751Y016885D01*
X010800Y016836D01*
X010800Y016788D01*
X010606Y016788D01*
X010606Y016740D02*
X010655Y016691D01*
X010751Y016691D01*
X010901Y016740D02*
X010901Y016836D01*
X010949Y016885D01*
X011094Y016885D01*
X011094Y016981D02*
X011094Y016691D01*
X010949Y016691D01*
X010901Y016740D01*
X011196Y016691D02*
X011292Y016788D01*
X011292Y016885D01*
X011196Y016981D01*
X010310Y016691D02*
X010213Y016788D01*
X012651Y016700D02*
X012796Y016700D01*
X012844Y016749D01*
X012844Y016845D01*
X012796Y016894D01*
X012651Y016894D01*
X012651Y016603D01*
X012747Y016700D02*
X012844Y016603D01*
X012945Y016749D02*
X013139Y016749D01*
X013091Y016894D02*
X013091Y016603D01*
X012945Y016749D02*
X013091Y016894D01*
X014692Y016330D02*
X014692Y016039D01*
X014692Y016136D02*
X014837Y016136D01*
X014885Y016184D01*
X014885Y016281D01*
X014837Y016330D01*
X014692Y016330D01*
X014789Y016136D02*
X014885Y016039D01*
X014986Y016088D02*
X015035Y016039D01*
X015132Y016039D01*
X015180Y016088D01*
X015180Y016136D01*
X015132Y016184D01*
X015083Y016184D01*
X015132Y016184D02*
X015180Y016233D01*
X015180Y016281D01*
X015132Y016330D01*
X015035Y016330D01*
X014986Y016281D01*
X011555Y012382D02*
X011555Y012011D01*
X011678Y012011D02*
X011431Y012011D01*
X011431Y012258D02*
X011555Y012382D01*
X003160Y004322D02*
X003160Y004177D01*
X003160Y004322D02*
X003111Y004370D01*
X002966Y004370D01*
X002966Y004177D01*
X002867Y004177D02*
X002770Y004177D01*
X002818Y004177D02*
X002818Y004370D01*
X002770Y004370D01*
X002818Y004467D02*
X002818Y004515D01*
X002796Y003130D02*
X002748Y003082D01*
X002796Y003130D02*
X002893Y003130D01*
X002941Y003082D01*
X002941Y003033D01*
X002748Y002840D01*
X002941Y002840D01*
X002646Y002888D02*
X002646Y003082D01*
X002598Y003130D01*
X002453Y003130D01*
X002453Y002840D01*
X002598Y002840D01*
X002646Y002888D01*
X002350Y001643D02*
X002253Y001595D01*
X002156Y001498D01*
X002301Y001498D01*
X002350Y001450D01*
X002350Y001401D01*
X002301Y001353D01*
X002205Y001353D01*
X002156Y001401D01*
X002156Y001498D01*
X002055Y001401D02*
X002007Y001353D01*
X001910Y001353D01*
X001862Y001401D01*
X001862Y001595D01*
X001910Y001643D01*
X002007Y001643D01*
X002055Y001595D01*
X001916Y000761D02*
X001916Y000471D01*
X001771Y000471D01*
X001723Y000519D01*
X001723Y000616D01*
X001771Y000664D01*
X001916Y000664D01*
X002018Y000616D02*
X002018Y000519D01*
X002066Y000471D01*
X002163Y000471D01*
X002211Y000567D02*
X002018Y000567D01*
X002018Y000616D02*
X002066Y000664D01*
X002163Y000664D01*
X002211Y000616D01*
X002211Y000567D01*
X002312Y000567D02*
X002409Y000664D01*
X002457Y000664D01*
X002558Y000664D02*
X002703Y000664D01*
X002751Y000664D01*
X002751Y000567D02*
X002558Y000567D01*
X002606Y000471D02*
X002606Y000761D01*
X002703Y000761D02*
X002703Y000471D01*
X002312Y000471D02*
X002312Y000664D01*
X001623Y000664D02*
X001574Y000664D01*
X001477Y000567D01*
X001477Y000471D02*
X001477Y000664D01*
X001376Y000713D02*
X001376Y000519D01*
X001328Y000471D01*
X001231Y000471D01*
X001183Y000519D01*
X001183Y000713D01*
X001231Y000761D01*
X001328Y000761D01*
X001376Y000713D01*
X003147Y000616D02*
X003340Y000616D01*
X003442Y000616D02*
X003635Y000616D01*
X003736Y000713D02*
X003785Y000761D01*
X003881Y000761D01*
X003930Y000713D01*
X003930Y000664D01*
X003881Y000616D01*
X003930Y000567D01*
X003930Y000519D01*
X003881Y000471D01*
X003785Y000471D01*
X003736Y000519D01*
X003833Y000616D02*
X003881Y000616D01*
X004031Y000616D02*
X004031Y000519D01*
X004079Y000471D01*
X004176Y000471D01*
X004224Y000519D01*
X004224Y000567D01*
X004176Y000616D01*
X004031Y000616D01*
X004128Y000713D01*
X004224Y000761D01*
X004326Y000664D02*
X004422Y000761D01*
X004422Y000471D01*
X004326Y000471D02*
X004519Y000471D01*
X003587Y000471D02*
X003587Y000761D01*
X003442Y000616D01*
X003292Y000471D02*
X003292Y000761D01*
X003147Y000616D01*
X007576Y000471D02*
X007721Y000471D01*
X007769Y000519D01*
X007769Y000713D01*
X007721Y000761D01*
X007576Y000761D01*
X007576Y000471D01*
X007871Y000519D02*
X007871Y000713D01*
X007919Y000761D01*
X008016Y000761D01*
X008064Y000713D01*
X008064Y000519D02*
X008016Y000471D01*
X007919Y000471D01*
X007871Y000519D01*
X008165Y000422D02*
X008359Y000422D01*
X008460Y000471D02*
X008557Y000471D01*
X008508Y000471D02*
X008508Y000761D01*
X008460Y000761D02*
X008557Y000761D01*
X008656Y000761D02*
X008850Y000471D01*
X008850Y000761D01*
X008656Y000761D02*
X008656Y000471D01*
X009266Y000524D02*
X009314Y000476D01*
X009411Y000476D01*
X009459Y000524D01*
X009459Y000621D01*
X009363Y000621D01*
X009459Y000718D02*
X009411Y000766D01*
X009314Y000766D01*
X009266Y000718D01*
X009266Y000524D01*
X009561Y000476D02*
X009561Y000766D01*
X009754Y000476D01*
X009754Y000766D01*
X009855Y000766D02*
X010000Y000766D01*
X010049Y000718D01*
X010049Y000524D01*
X010000Y000476D01*
X009855Y000476D01*
X009855Y000766D01*
D12*
X010363Y001098D02*
X010400Y001061D01*
X010510Y001061D01*
X010510Y001025D02*
X010510Y001208D01*
X010400Y001208D01*
X010363Y001171D01*
X010363Y001098D01*
X010437Y000988D02*
X010473Y000988D01*
X010510Y001025D01*
X010584Y001061D02*
X010584Y001208D01*
X010694Y001208D01*
X010731Y001171D01*
X010731Y001061D01*
X010805Y001098D02*
X010805Y001171D01*
X010842Y001208D01*
X010952Y001208D01*
X010952Y001281D02*
X010952Y001061D01*
X010842Y001061D01*
X010805Y001098D01*
X011938Y002043D02*
X011938Y002190D01*
X011975Y002226D01*
X012048Y002226D01*
X012085Y002190D01*
X012085Y002116D02*
X012012Y002116D01*
X012085Y002116D02*
X012085Y002043D01*
X012048Y002006D01*
X011975Y002006D01*
X011938Y002043D01*
X012159Y002006D02*
X012159Y002226D01*
X012306Y002006D01*
X012306Y002226D01*
X012380Y002226D02*
X012380Y002006D01*
X012490Y002006D01*
X012527Y002043D01*
X012527Y002190D01*
X012490Y002226D01*
X012380Y002226D01*
X012315Y002357D02*
X012352Y002393D01*
X012315Y002357D02*
X012242Y002357D01*
X012205Y002393D01*
X012205Y002540D01*
X012242Y002577D01*
X012315Y002577D01*
X012352Y002540D01*
X012426Y002540D02*
X012426Y002393D01*
X012463Y002357D01*
X012536Y002357D01*
X012573Y002393D01*
X012573Y002540D02*
X012536Y002577D01*
X012463Y002577D01*
X012426Y002540D01*
X012131Y002577D02*
X012131Y002430D01*
X012057Y002357D01*
X011984Y002430D01*
X011984Y002577D01*
X012992Y002540D02*
X012992Y002393D01*
X013029Y002357D01*
X013102Y002357D01*
X013139Y002393D01*
X013213Y002393D02*
X013250Y002357D01*
X013323Y002357D01*
X013360Y002393D01*
X013360Y002430D01*
X013323Y002467D01*
X013250Y002467D01*
X013213Y002504D01*
X013213Y002540D01*
X013250Y002577D01*
X013323Y002577D01*
X013360Y002540D01*
X013139Y002540D02*
X013102Y002577D01*
X013029Y002577D01*
X012992Y002540D01*
X013029Y002223D02*
X012992Y002186D01*
X012992Y002039D01*
X013029Y002002D01*
X013102Y002002D01*
X013139Y002039D01*
X013213Y002002D02*
X013360Y002002D01*
X013287Y002113D02*
X013213Y002113D01*
X013139Y002186D02*
X013102Y002223D01*
X013029Y002223D01*
X013213Y002223D02*
X013213Y002002D01*
X013213Y002223D02*
X013360Y002223D01*
X013844Y002357D02*
X013844Y002577D01*
X013918Y002504D01*
X013991Y002577D01*
X013991Y002357D01*
X014065Y002393D02*
X014102Y002357D01*
X014176Y002357D01*
X014212Y002393D01*
X014212Y002540D01*
X014176Y002577D01*
X014102Y002577D01*
X014065Y002540D01*
X014065Y002393D01*
X014023Y002223D02*
X013950Y002223D01*
X013913Y002186D01*
X013913Y002149D01*
X013950Y002113D01*
X014023Y002113D01*
X014060Y002076D01*
X014060Y002039D01*
X014023Y002002D01*
X013950Y002002D01*
X013913Y002039D01*
X014060Y002186D02*
X014023Y002223D01*
X014134Y002186D02*
X014134Y002039D01*
X014171Y002002D01*
X014244Y002002D01*
X014281Y002039D01*
X014355Y002002D02*
X014355Y002223D01*
X014281Y002186D02*
X014244Y002223D01*
X014171Y002223D01*
X014134Y002186D01*
X014355Y002076D02*
X014502Y002223D01*
X014507Y002357D02*
X014581Y002357D01*
X014544Y002357D02*
X014544Y002577D01*
X014507Y002577D02*
X014581Y002577D01*
X014433Y002540D02*
X014396Y002577D01*
X014323Y002577D01*
X014286Y002540D01*
X014286Y002504D01*
X014323Y002467D01*
X014396Y002467D01*
X014433Y002430D01*
X014433Y002393D01*
X014396Y002357D01*
X014323Y002357D01*
X014286Y002393D01*
X014392Y002113D02*
X014502Y002002D01*
X014829Y002002D02*
X014829Y002223D01*
X014902Y002149D01*
X014975Y002223D01*
X014975Y002002D01*
X015050Y002002D02*
X015123Y002002D01*
X015086Y002002D02*
X015086Y002223D01*
X015050Y002223D02*
X015123Y002223D01*
X015197Y002186D02*
X015197Y002149D01*
X015234Y002113D01*
X015307Y002113D01*
X015344Y002076D01*
X015344Y002039D01*
X015307Y002002D01*
X015234Y002002D01*
X015197Y002039D01*
X015197Y002186D02*
X015234Y002223D01*
X015307Y002223D01*
X015344Y002186D01*
X015418Y002186D02*
X015418Y002039D01*
X015455Y002002D01*
X015528Y002002D01*
X015565Y002039D01*
X015565Y002186D01*
X015528Y002223D01*
X015455Y002223D01*
X015418Y002186D01*
X015478Y002361D02*
X015441Y002397D01*
X015588Y002544D01*
X015588Y002397D01*
X015551Y002361D01*
X015478Y002361D01*
X015441Y002397D02*
X015441Y002544D01*
X015478Y002581D01*
X015551Y002581D01*
X015588Y002544D01*
X015367Y002581D02*
X015220Y002581D01*
X015293Y002581D02*
X015293Y002361D01*
X015146Y002361D02*
X015146Y002581D01*
X014999Y002581D02*
X014999Y002361D01*
X014925Y002361D02*
X014852Y002361D01*
X014888Y002361D02*
X014888Y002581D01*
X014852Y002581D02*
X014925Y002581D01*
X014999Y002581D02*
X015146Y002361D01*
X019178Y003657D02*
X019215Y003620D01*
X019362Y003620D01*
X019399Y003657D01*
X019399Y003730D01*
X019362Y003767D01*
X019288Y003767D01*
X019288Y003694D01*
X019215Y003767D02*
X019178Y003730D01*
X019178Y003657D01*
X019178Y003841D02*
X019399Y003988D01*
X019178Y003988D01*
X019178Y004062D02*
X019178Y004172D01*
X019215Y004209D01*
X019362Y004209D01*
X019399Y004172D01*
X019399Y004062D01*
X019178Y004062D01*
X019178Y003841D02*
X019399Y003841D01*
X019325Y004644D02*
X019178Y004644D01*
X019178Y004791D02*
X019325Y004791D01*
X019399Y004717D01*
X019325Y004644D01*
X019362Y004865D02*
X019215Y004865D01*
X019178Y004902D01*
X019178Y004975D01*
X019215Y005012D01*
X019215Y005086D02*
X019362Y005086D01*
X019399Y005123D01*
X019399Y005196D01*
X019362Y005233D01*
X019215Y005233D02*
X019178Y005196D01*
X019178Y005123D01*
X019215Y005086D01*
X019362Y005012D02*
X019399Y004975D01*
X019399Y004902D01*
X019362Y004865D01*
X019326Y005674D02*
X019363Y005711D01*
X019363Y005784D01*
X019326Y005821D01*
X019290Y005821D01*
X019253Y005784D01*
X019253Y005711D01*
X019216Y005674D01*
X019179Y005674D01*
X019143Y005711D01*
X019143Y005784D01*
X019179Y005821D01*
X019179Y005895D02*
X019326Y005895D01*
X019363Y005932D01*
X019363Y006005D01*
X019326Y006042D01*
X019363Y006116D02*
X019143Y006116D01*
X019179Y006042D02*
X019143Y006005D01*
X019143Y005932D01*
X019179Y005895D01*
X019363Y006116D02*
X019363Y006263D01*
X019326Y006658D02*
X019363Y006695D01*
X019363Y006768D01*
X019326Y006805D01*
X019290Y006805D01*
X019253Y006768D01*
X019253Y006695D01*
X019216Y006658D01*
X019179Y006658D01*
X019143Y006695D01*
X019143Y006768D01*
X019179Y006805D01*
X019143Y006879D02*
X019143Y006989D01*
X019179Y007026D01*
X019326Y007026D01*
X019363Y006989D01*
X019363Y006879D01*
X019143Y006879D01*
X019216Y007100D02*
X019143Y007174D01*
X019216Y007247D01*
X019363Y007247D01*
X019253Y007247D02*
X019253Y007100D01*
X019216Y007100D02*
X019363Y007100D01*
X019402Y007637D02*
X019402Y007711D01*
X019402Y007674D02*
X019182Y007674D01*
X019182Y007637D02*
X019182Y007711D01*
X019219Y007785D02*
X019366Y007785D01*
X019402Y007821D01*
X019402Y007895D01*
X019366Y007931D01*
X019402Y008006D02*
X019182Y008006D01*
X019182Y008116D01*
X019219Y008152D01*
X019292Y008152D01*
X019329Y008116D01*
X019329Y008006D01*
X019219Y007931D02*
X019182Y007895D01*
X019182Y007821D01*
X019219Y007785D01*
X019178Y008620D02*
X019178Y008730D01*
X019215Y008767D01*
X019288Y008767D01*
X019325Y008730D01*
X019325Y008620D01*
X019399Y008620D02*
X019178Y008620D01*
X019215Y008841D02*
X019362Y008841D01*
X019399Y008878D01*
X019399Y008951D01*
X019362Y008988D01*
X019288Y009062D02*
X019178Y009172D01*
X019399Y009172D01*
X019288Y009209D02*
X019288Y009062D01*
X019215Y008988D02*
X019178Y008951D01*
X019178Y008878D01*
X019215Y008841D01*
X019178Y011298D02*
X019178Y011408D01*
X019215Y011444D01*
X019288Y011444D01*
X019325Y011408D01*
X019325Y011298D01*
X019399Y011298D02*
X019178Y011298D01*
X019252Y011519D02*
X019178Y011592D01*
X019252Y011665D01*
X019399Y011665D01*
X019362Y011740D02*
X019399Y011776D01*
X019399Y011850D01*
X019362Y011886D01*
X019325Y011886D01*
X019288Y011850D01*
X019288Y011740D01*
X019362Y011740D01*
X019288Y011740D02*
X019215Y011813D01*
X019178Y011886D01*
X019288Y011665D02*
X019288Y011519D01*
X019252Y011519D02*
X019399Y011519D01*
X019399Y012282D02*
X019178Y012282D01*
X019178Y012392D01*
X019215Y012429D01*
X019288Y012429D01*
X019325Y012392D01*
X019325Y012282D01*
X019288Y012503D02*
X019288Y012650D01*
X019252Y012650D02*
X019399Y012650D01*
X019362Y012724D02*
X019399Y012760D01*
X019399Y012834D01*
X019362Y012871D01*
X019288Y012871D01*
X019252Y012834D01*
X019252Y012797D01*
X019288Y012724D01*
X019178Y012724D01*
X019178Y012871D01*
X019252Y012650D02*
X019178Y012576D01*
X019252Y012503D01*
X019399Y012503D01*
X019399Y013266D02*
X019178Y013266D01*
X019178Y013376D01*
X019215Y013413D01*
X019288Y013413D01*
X019325Y013376D01*
X019325Y013266D01*
X019288Y013487D02*
X019288Y013634D01*
X019252Y013634D02*
X019399Y013634D01*
X019288Y013708D02*
X019288Y013855D01*
X019178Y013818D02*
X019399Y013818D01*
X019288Y013708D02*
X019178Y013818D01*
X019252Y013634D02*
X019178Y013560D01*
X019252Y013487D01*
X019399Y013487D01*
X019399Y014290D02*
X019178Y014290D01*
X019178Y014400D01*
X019215Y014436D01*
X019288Y014436D01*
X019325Y014400D01*
X019325Y014290D01*
X019288Y014511D02*
X019288Y014657D01*
X019252Y014657D02*
X019399Y014657D01*
X019362Y014732D02*
X019399Y014768D01*
X019399Y014842D01*
X019362Y014878D01*
X019325Y014878D01*
X019288Y014842D01*
X019288Y014805D01*
X019288Y014842D02*
X019252Y014878D01*
X019215Y014878D01*
X019178Y014842D01*
X019178Y014768D01*
X019215Y014732D01*
X019252Y014657D02*
X019178Y014584D01*
X019252Y014511D01*
X019399Y014511D01*
X019399Y015313D02*
X019178Y015313D01*
X019178Y015423D01*
X019215Y015460D01*
X019288Y015460D01*
X019325Y015423D01*
X019325Y015313D01*
X019288Y015534D02*
X019288Y015681D01*
X019252Y015681D02*
X019399Y015681D01*
X019399Y015755D02*
X019252Y015902D01*
X019215Y015902D01*
X019178Y015865D01*
X019178Y015792D01*
X019215Y015755D01*
X019252Y015681D02*
X019178Y015608D01*
X019252Y015534D01*
X019399Y015534D01*
X019399Y015755D02*
X019399Y015902D01*
X019399Y016298D02*
X019178Y016298D01*
X019178Y016408D01*
X019215Y016444D01*
X019288Y016444D01*
X019325Y016408D01*
X019325Y016298D01*
X019288Y016519D02*
X019288Y016665D01*
X019252Y016665D02*
X019399Y016665D01*
X019399Y016740D02*
X019399Y016886D01*
X019399Y016813D02*
X019178Y016813D01*
X019252Y016740D01*
X019252Y016665D02*
X019178Y016592D01*
X019252Y016519D01*
X019399Y016519D01*
X019399Y017242D02*
X019178Y017242D01*
X019178Y017353D01*
X019215Y017389D01*
X019288Y017389D01*
X019325Y017353D01*
X019325Y017242D01*
X019288Y017463D02*
X019288Y017610D01*
X019252Y017610D02*
X019399Y017610D01*
X019362Y017684D02*
X019215Y017684D01*
X019178Y017721D01*
X019178Y017794D01*
X019215Y017831D01*
X019362Y017684D01*
X019399Y017721D01*
X019399Y017794D01*
X019362Y017831D01*
X019215Y017831D01*
X019252Y017610D02*
X019178Y017537D01*
X019252Y017463D01*
X019399Y017463D01*
X019322Y018227D02*
X019176Y018227D01*
X019139Y018263D01*
X019139Y018337D01*
X019176Y018373D01*
X019249Y018373D02*
X019249Y018300D01*
X019249Y018373D02*
X019322Y018373D01*
X019359Y018337D01*
X019359Y018263D01*
X019322Y018227D01*
X019359Y018448D02*
X019139Y018448D01*
X019359Y018594D01*
X019139Y018594D01*
X019139Y018669D02*
X019139Y018779D01*
X019176Y018815D01*
X019322Y018815D01*
X019359Y018779D01*
X019359Y018669D01*
X019139Y018669D01*
X011149Y019051D02*
X011149Y019198D01*
X011112Y019234D01*
X011002Y019234D01*
X011002Y019014D01*
X011112Y019014D01*
X011149Y019051D01*
X010928Y019014D02*
X010928Y019234D01*
X010781Y019234D02*
X010928Y019014D01*
X010781Y019014D02*
X010781Y019234D01*
X010707Y019198D02*
X010670Y019234D01*
X010597Y019234D01*
X010560Y019198D01*
X010560Y019051D01*
X010597Y019014D01*
X010670Y019014D01*
X010707Y019051D01*
X010707Y019124D01*
X010634Y019124D01*
X010165Y019014D02*
X010018Y019014D01*
X010091Y019014D02*
X010091Y019234D01*
X010018Y019161D01*
X009944Y019161D02*
X009907Y019124D01*
X009797Y019124D01*
X009723Y019124D02*
X009686Y019087D01*
X009576Y019087D01*
X009576Y019014D02*
X009576Y019234D01*
X009686Y019234D01*
X009723Y019198D01*
X009723Y019124D01*
X009797Y019014D02*
X009797Y019234D01*
X009907Y019234D01*
X009944Y019198D01*
X009944Y019161D01*
X009907Y019124D02*
X009944Y019087D01*
X009944Y019051D01*
X009907Y019014D01*
X009797Y019014D01*
X009180Y019014D02*
X009034Y019014D01*
X009180Y019161D01*
X009180Y019198D01*
X009144Y019234D01*
X009070Y019234D01*
X009034Y019198D01*
X008959Y019198D02*
X008959Y019161D01*
X008923Y019124D01*
X008813Y019124D01*
X008739Y019124D02*
X008702Y019087D01*
X008592Y019087D01*
X008592Y019014D02*
X008592Y019234D01*
X008702Y019234D01*
X008739Y019198D01*
X008739Y019124D01*
X008813Y019014D02*
X008813Y019234D01*
X008923Y019234D01*
X008959Y019198D01*
X008923Y019124D02*
X008959Y019087D01*
X008959Y019051D01*
X008923Y019014D01*
X008813Y019014D01*
X008196Y019051D02*
X008160Y019014D01*
X008086Y019014D01*
X008049Y019051D01*
X007975Y019051D02*
X007939Y019014D01*
X007828Y019014D01*
X007828Y019234D01*
X007939Y019234D01*
X007975Y019198D01*
X007975Y019161D01*
X007939Y019124D01*
X007828Y019124D01*
X007754Y019124D02*
X007718Y019087D01*
X007607Y019087D01*
X007607Y019014D02*
X007607Y019234D01*
X007718Y019234D01*
X007754Y019198D01*
X007754Y019124D01*
X007939Y019124D02*
X007975Y019087D01*
X007975Y019051D01*
X008049Y019198D02*
X008086Y019234D01*
X008160Y019234D01*
X008196Y019198D01*
X008196Y019161D01*
X008160Y019124D01*
X008196Y019087D01*
X008196Y019051D01*
X008160Y019124D02*
X008123Y019124D01*
X007212Y019124D02*
X007212Y019051D01*
X007175Y019014D01*
X007102Y019014D01*
X007065Y019051D01*
X007065Y019124D02*
X007139Y019161D01*
X007175Y019161D01*
X007212Y019124D01*
X007212Y019234D02*
X007065Y019234D01*
X007065Y019124D01*
X006991Y019051D02*
X006991Y019198D01*
X006954Y019234D01*
X006844Y019234D01*
X006844Y019014D01*
X006954Y019014D01*
X006991Y019051D01*
X006770Y019124D02*
X006733Y019087D01*
X006623Y019087D01*
X006623Y019014D02*
X006623Y019234D01*
X006733Y019234D01*
X006770Y019198D01*
X006770Y019124D01*
X006228Y019124D02*
X006081Y019124D01*
X006191Y019234D01*
X006191Y019014D01*
X006007Y019051D02*
X006007Y019198D01*
X005970Y019234D01*
X005860Y019234D01*
X005860Y019014D01*
X005970Y019014D01*
X006007Y019051D01*
X005786Y019124D02*
X005749Y019087D01*
X005639Y019087D01*
X005639Y019014D02*
X005639Y019234D01*
X005749Y019234D01*
X005786Y019198D01*
X005786Y019124D01*
X005170Y019124D02*
X005170Y019014D01*
X005170Y019124D02*
X005133Y019161D01*
X005023Y019161D01*
X005023Y019014D01*
X004949Y019014D02*
X004876Y019014D01*
X004912Y019014D02*
X004912Y019161D01*
X004876Y019161D01*
X004912Y019234D02*
X004912Y019271D01*
X004801Y019234D02*
X004801Y019087D01*
X004728Y019014D01*
X004655Y019087D01*
X004655Y019234D01*
X004180Y019198D02*
X004144Y019234D01*
X004070Y019234D01*
X004034Y019198D01*
X004034Y019051D01*
X004070Y019014D01*
X004144Y019014D01*
X004180Y019051D01*
X003959Y019051D02*
X003923Y019014D01*
X003849Y019014D01*
X003813Y019051D01*
X003813Y019198D01*
X003849Y019234D01*
X003923Y019234D01*
X003959Y019198D01*
X003739Y019234D02*
X003739Y019087D01*
X003665Y019014D01*
X003592Y019087D01*
X003592Y019234D01*
X003417Y016847D02*
X003454Y016810D01*
X003454Y016737D01*
X003417Y016700D01*
X003270Y016700D01*
X003233Y016737D01*
X003233Y016810D01*
X003270Y016847D01*
X003270Y016626D02*
X003233Y016589D01*
X003233Y016516D01*
X003270Y016479D01*
X003417Y016479D01*
X003454Y016516D01*
X003454Y016589D01*
X003417Y016626D01*
X003380Y016405D02*
X003233Y016405D01*
X003233Y016258D02*
X003380Y016258D01*
X003454Y016332D01*
X003380Y016405D01*
X000692Y016368D02*
X000656Y016405D01*
X000472Y016405D01*
X000472Y016295D01*
X000509Y016258D01*
X000582Y016258D01*
X000619Y016295D01*
X000619Y016405D01*
X000619Y016479D02*
X000472Y016479D01*
X000472Y016589D01*
X000509Y016626D01*
X000619Y016626D01*
X000582Y016700D02*
X000509Y016700D01*
X000472Y016737D01*
X000472Y016847D01*
X000399Y016847D02*
X000619Y016847D01*
X000619Y016737D01*
X000582Y016700D01*
X000692Y016368D02*
X000692Y016332D01*
X000580Y011571D02*
X000580Y011461D01*
X000543Y011425D01*
X000470Y011425D01*
X000433Y011461D01*
X000433Y011571D01*
X000433Y011350D02*
X000433Y011240D01*
X000470Y011204D01*
X000543Y011204D01*
X000580Y011240D01*
X000580Y011350D01*
X000433Y011129D02*
X000580Y011056D01*
X000433Y010983D01*
X006846Y009709D02*
X009546Y009709D01*
X009546Y009409D02*
X006846Y009409D01*
X006846Y009709D02*
X006790Y009707D01*
X006735Y009701D01*
X006680Y009692D01*
X006626Y009678D01*
X006573Y009661D01*
X006522Y009640D01*
X006472Y009616D01*
X006424Y009588D01*
X006377Y009557D01*
X006333Y009523D01*
X006292Y009486D01*
X006253Y009446D01*
X006217Y009404D01*
X006185Y009359D01*
X006628Y008459D02*
X006662Y008444D01*
X006698Y008431D01*
X006734Y008422D01*
X006771Y008415D01*
X006808Y008410D01*
X006846Y008409D01*
X009546Y008409D01*
X009546Y008109D02*
X006846Y008109D01*
X006628Y009359D02*
X006662Y009374D01*
X006698Y009387D01*
X006734Y009396D01*
X006771Y009403D01*
X006808Y009408D01*
X006846Y009409D01*
X006185Y008459D02*
X006217Y008414D01*
X006253Y008372D01*
X006292Y008332D01*
X006334Y008295D01*
X006377Y008261D01*
X006424Y008230D01*
X006472Y008202D01*
X006522Y008178D01*
X006573Y008157D01*
X006626Y008140D01*
X006680Y008126D01*
X006735Y008117D01*
X006790Y008111D01*
X006846Y008109D01*
X007796Y008909D02*
X007946Y008909D01*
X008446Y008909D02*
X008596Y008909D01*
X009546Y008109D02*
X009602Y008111D01*
X009657Y008117D01*
X009712Y008126D01*
X009766Y008140D01*
X009819Y008157D01*
X009870Y008178D01*
X009920Y008202D01*
X009968Y008230D01*
X010015Y008261D01*
X010059Y008295D01*
X010100Y008332D01*
X010139Y008372D01*
X010175Y008414D01*
X010207Y008459D01*
X009764Y008459D02*
X009730Y008444D01*
X009694Y008431D01*
X009658Y008422D01*
X009621Y008415D01*
X009584Y008410D01*
X009546Y008409D01*
X009764Y009359D02*
X009730Y009374D01*
X009694Y009387D01*
X009658Y009396D01*
X009621Y009403D01*
X009584Y009408D01*
X009546Y009409D01*
X009546Y009709D02*
X009602Y009707D01*
X009657Y009701D01*
X009712Y009692D01*
X009766Y009678D01*
X009819Y009661D01*
X009870Y009640D01*
X009920Y009616D01*
X009968Y009588D01*
X010015Y009557D01*
X010058Y009523D01*
X010100Y009486D01*
X010139Y009446D01*
X010175Y009404D01*
X010207Y009359D01*
X009971Y014565D02*
X009860Y014565D01*
X009860Y014785D01*
X009971Y014785D01*
X010007Y014749D01*
X010007Y014602D01*
X009971Y014565D01*
X009786Y014565D02*
X009786Y014785D01*
X009639Y014785D02*
X009639Y014565D01*
X009565Y014602D02*
X009565Y014675D01*
X009492Y014675D01*
X009565Y014602D02*
X009529Y014565D01*
X009455Y014565D01*
X009419Y014602D01*
X009419Y014749D01*
X009455Y014785D01*
X009529Y014785D01*
X009565Y014749D01*
X009639Y014785D02*
X009786Y014565D01*
X010481Y014602D02*
X010518Y014565D01*
X010592Y014565D01*
X010628Y014602D01*
X010628Y014675D01*
X010555Y014675D01*
X010481Y014602D02*
X010481Y014749D01*
X010518Y014785D01*
X010592Y014785D01*
X010628Y014749D01*
X010702Y014785D02*
X010849Y014565D01*
X010849Y014785D01*
X010923Y014785D02*
X011034Y014785D01*
X011070Y014749D01*
X011070Y014602D01*
X011034Y014565D01*
X010923Y014565D01*
X010923Y014785D01*
X010702Y014785D02*
X010702Y014565D01*
X009023Y014602D02*
X009023Y014749D01*
X008986Y014785D01*
X008876Y014785D01*
X008876Y014565D01*
X008986Y014565D01*
X009023Y014602D01*
X008802Y014565D02*
X008802Y014785D01*
X008655Y014785D02*
X008655Y014565D01*
X008581Y014602D02*
X008581Y014675D01*
X008508Y014675D01*
X008581Y014602D02*
X008544Y014565D01*
X008471Y014565D01*
X008434Y014602D01*
X008434Y014749D01*
X008471Y014785D01*
X008544Y014785D01*
X008581Y014749D01*
X008655Y014785D02*
X008802Y014565D01*
X008039Y014602D02*
X008039Y014749D01*
X008002Y014785D01*
X007892Y014785D01*
X007892Y014565D01*
X008002Y014565D01*
X008039Y014602D01*
X007818Y014565D02*
X007818Y014785D01*
X007671Y014785D02*
X007671Y014565D01*
X007597Y014602D02*
X007597Y014675D01*
X007523Y014675D01*
X007450Y014602D02*
X007487Y014565D01*
X007560Y014565D01*
X007597Y014602D01*
X007597Y014749D02*
X007560Y014785D01*
X007487Y014785D01*
X007450Y014749D01*
X007450Y014602D01*
X007671Y014785D02*
X007818Y014565D01*
X007330Y002468D02*
X007220Y002468D01*
X007183Y002431D01*
X007183Y002358D01*
X007220Y002321D01*
X007330Y002321D01*
X007109Y002321D02*
X006999Y002321D01*
X006962Y002358D01*
X006962Y002431D01*
X006999Y002468D01*
X007109Y002468D01*
X006888Y002468D02*
X006815Y002321D01*
X006741Y002468D01*
D13*
X006529Y002103D02*
X006629Y002003D01*
X006629Y001203D01*
X006529Y001103D01*
X005729Y001103D01*
X005629Y001203D01*
X005529Y001103D01*
X004729Y001103D01*
X004629Y001203D01*
X004629Y002003D01*
X004729Y002103D01*
X005529Y002103D01*
X005629Y002003D01*
X005729Y002103D01*
X006529Y002103D01*
X008060Y001872D02*
X008060Y001372D01*
X008310Y001122D01*
X008810Y001122D01*
X009060Y001372D01*
X009310Y001122D01*
X009810Y001122D01*
X010060Y001372D01*
X010060Y001872D01*
X009810Y002122D01*
X009310Y002122D01*
X009060Y001872D01*
X009060Y001372D01*
X009060Y001872D02*
X008810Y002122D01*
X008310Y002122D01*
X008060Y001872D01*
X008017Y003898D02*
X007767Y004148D01*
X007517Y003898D01*
X007017Y003898D01*
X006767Y004148D01*
X006517Y003898D01*
X006017Y003898D01*
X005767Y004148D01*
X005767Y004648D01*
X006017Y004898D01*
X006517Y004898D01*
X006767Y004648D01*
X007017Y004898D01*
X007517Y004898D01*
X007767Y004648D01*
X008017Y004898D01*
X008517Y004898D01*
X008767Y004648D01*
X009017Y004898D01*
X009517Y004898D01*
X009767Y004648D01*
X010017Y004898D01*
X010517Y004898D01*
X010767Y004648D01*
X010767Y004148D01*
X010517Y003898D01*
X010017Y003898D01*
X009767Y004148D01*
X009517Y003898D01*
X009017Y003898D01*
X008767Y004148D01*
X008767Y004648D01*
X008767Y004148D02*
X008517Y003898D01*
X008017Y003898D01*
X007767Y004148D02*
X007767Y004648D01*
X006767Y004648D02*
X006767Y004148D01*
X009767Y004148D02*
X009767Y004648D01*
X011700Y004439D02*
X011700Y002939D01*
X011950Y002689D01*
X012450Y002689D01*
X012700Y002939D01*
X012700Y004439D01*
X012950Y004689D01*
X013450Y004689D01*
X013700Y004439D01*
X013700Y002939D01*
X013950Y002689D01*
X014450Y002689D01*
X014700Y002939D01*
X014950Y002689D01*
X015450Y002689D01*
X015700Y002939D01*
X015700Y004439D01*
X015450Y004689D01*
X014950Y004689D01*
X014700Y004439D01*
X014700Y002939D01*
X013700Y002939D02*
X013450Y002689D01*
X012950Y002689D01*
X012700Y002939D01*
X012607Y001684D02*
X012607Y001044D01*
X012607Y001364D02*
X013034Y001364D01*
X013252Y001150D02*
X013252Y001044D01*
X013679Y001044D01*
X013896Y001044D02*
X014216Y001044D01*
X014323Y001150D01*
X014323Y001257D01*
X014216Y001364D01*
X013896Y001364D01*
X013896Y001044D02*
X013896Y001684D01*
X014216Y001684D01*
X014323Y001577D01*
X014323Y001471D01*
X014216Y001364D01*
X014541Y001577D02*
X014541Y001150D01*
X014647Y001044D01*
X014861Y001044D01*
X014968Y001150D01*
X015185Y001044D02*
X015185Y001684D01*
X015399Y001471D01*
X015612Y001684D01*
X015612Y001044D01*
X015830Y001044D02*
X016257Y001044D01*
X016043Y001044D02*
X016043Y001684D01*
X015830Y001471D01*
X014968Y001577D02*
X014861Y001684D01*
X014647Y001684D01*
X014541Y001577D01*
X013679Y001577D02*
X013252Y001150D01*
X013034Y001044D02*
X013034Y001684D01*
X013252Y001684D02*
X013679Y001684D01*
X013679Y001577D01*
X013700Y004439D02*
X013950Y004689D01*
X014450Y004689D01*
X014700Y004439D01*
X012700Y004439D02*
X012450Y004689D01*
X011950Y004689D01*
X011700Y004439D01*
X010346Y007959D02*
X006046Y007959D01*
X006029Y007961D01*
X006012Y007965D01*
X005996Y007972D01*
X005982Y007982D01*
X005969Y007995D01*
X005959Y008009D01*
X005952Y008025D01*
X005948Y008042D01*
X005946Y008059D01*
X005946Y008459D01*
X005946Y009359D02*
X005946Y009759D01*
X005948Y009776D01*
X005952Y009793D01*
X005959Y009809D01*
X005969Y009823D01*
X005982Y009836D01*
X005996Y009846D01*
X006012Y009853D01*
X006029Y009857D01*
X006046Y009859D01*
X010346Y009859D01*
X010363Y009857D01*
X010380Y009853D01*
X010396Y009846D01*
X010410Y009836D01*
X010423Y009823D01*
X010433Y009809D01*
X010440Y009793D01*
X010444Y009776D01*
X010446Y009759D01*
X010446Y009359D01*
X010446Y008459D02*
X010446Y008059D01*
X010444Y008042D01*
X010440Y008025D01*
X010433Y008009D01*
X010423Y007995D01*
X010410Y007982D01*
X010396Y007972D01*
X010380Y007965D01*
X010363Y007961D01*
X010346Y007959D01*
X008446Y008659D02*
X008446Y008909D01*
X008446Y009159D01*
X008296Y009159D02*
X008096Y009159D01*
X008096Y008659D01*
X008296Y008659D01*
X008296Y009159D01*
X007946Y009159D02*
X007946Y008909D01*
X007946Y008659D01*
X008070Y010998D02*
X008220Y010998D01*
X008237Y011000D01*
X008254Y011004D01*
X008270Y011011D01*
X008284Y011021D01*
X008297Y011034D01*
X008307Y011048D01*
X008314Y011064D01*
X008318Y011081D01*
X008320Y011098D01*
X008320Y011698D01*
X008318Y011715D01*
X008314Y011732D01*
X008307Y011748D01*
X008297Y011762D01*
X008284Y011775D01*
X008270Y011785D01*
X008254Y011792D01*
X008237Y011796D01*
X008220Y011798D01*
X008070Y011798D01*
X008020Y011748D01*
X006620Y011748D01*
X006570Y011798D01*
X006420Y011798D01*
X006403Y011796D01*
X006386Y011792D01*
X006370Y011785D01*
X006356Y011775D01*
X006343Y011762D01*
X006333Y011748D01*
X006326Y011732D01*
X006322Y011715D01*
X006320Y011698D01*
X006320Y011098D01*
X006322Y011081D01*
X006326Y011064D01*
X006333Y011048D01*
X006343Y011034D01*
X006356Y011021D01*
X006370Y011011D01*
X006386Y011004D01*
X006403Y011000D01*
X006420Y010998D01*
X006570Y010998D01*
X006620Y011048D01*
X008020Y011048D01*
X008070Y010998D01*
X013095Y010117D02*
X013309Y010117D01*
X013202Y010117D02*
X013202Y009476D01*
X013095Y009476D02*
X013309Y009476D01*
X013525Y009583D02*
X013632Y009476D01*
X013845Y009476D01*
X013952Y009583D01*
X014169Y009476D02*
X014596Y009476D01*
X014383Y009476D02*
X014383Y010117D01*
X014169Y009903D01*
X013952Y010010D02*
X013845Y010117D01*
X013632Y010117D01*
X013525Y010010D01*
X013525Y009583D01*
X017924Y009242D02*
X017924Y008742D01*
X018174Y008492D01*
X017924Y008242D01*
X017924Y007742D01*
X018174Y007492D01*
X018674Y007492D01*
X018924Y007742D01*
X018924Y008242D01*
X018674Y008492D01*
X018174Y008492D01*
X018674Y008492D02*
X018924Y008742D01*
X018924Y009242D01*
X018674Y009492D01*
X018174Y009492D01*
X017924Y009242D01*
X018174Y007500D02*
X017924Y007250D01*
X017924Y006750D01*
X018174Y006500D01*
X017924Y006250D01*
X017924Y005750D01*
X018174Y005500D01*
X018674Y005500D01*
X018924Y005750D01*
X018924Y006250D01*
X018674Y006500D01*
X018174Y006500D01*
X018674Y006500D02*
X018924Y006750D01*
X018924Y007250D01*
X018674Y007500D01*
X018174Y007500D01*
X018174Y005500D02*
X017924Y005250D01*
X017924Y004750D01*
X018174Y004500D01*
X017924Y004250D01*
X017924Y003750D01*
X018174Y003500D01*
X018674Y003500D01*
X018924Y003750D01*
X018924Y004250D01*
X018674Y004500D01*
X018174Y004500D01*
X018674Y004500D02*
X018924Y004750D01*
X018924Y005250D01*
X018674Y005500D01*
X016920Y001681D02*
X016922Y001748D01*
X016928Y001816D01*
X016938Y001883D01*
X016952Y001949D01*
X016969Y002014D01*
X016991Y002078D01*
X017016Y002141D01*
X017045Y002202D01*
X017077Y002261D01*
X017113Y002318D01*
X017152Y002373D01*
X017194Y002426D01*
X017239Y002476D01*
X017287Y002523D01*
X017338Y002568D01*
X017391Y002609D01*
X017447Y002648D01*
X017505Y002683D01*
X017565Y002714D01*
X017626Y002742D01*
X017689Y002766D01*
X017753Y002787D01*
X017819Y002803D01*
X017885Y002816D01*
X017952Y002825D01*
X018019Y002830D01*
X018087Y002831D01*
X018154Y002828D01*
X018221Y002821D01*
X018288Y002810D01*
X018354Y002795D01*
X018419Y002777D01*
X018483Y002754D01*
X018545Y002728D01*
X018606Y002699D01*
X018664Y002665D01*
X018721Y002629D01*
X018776Y002589D01*
X018828Y002546D01*
X018877Y002500D01*
X018924Y002451D01*
X018968Y002400D01*
X019008Y002346D01*
X019046Y002290D01*
X019080Y002231D01*
X019110Y002171D01*
X019137Y002109D01*
X019161Y002046D01*
X019180Y001981D01*
X019196Y001916D01*
X019208Y001849D01*
X019216Y001782D01*
X019220Y001715D01*
X019220Y001647D01*
X019216Y001580D01*
X019208Y001513D01*
X019196Y001446D01*
X019180Y001381D01*
X019161Y001316D01*
X019137Y001253D01*
X019110Y001191D01*
X019080Y001131D01*
X019046Y001072D01*
X019008Y001016D01*
X018968Y000962D01*
X018924Y000911D01*
X018877Y000862D01*
X018828Y000816D01*
X018776Y000773D01*
X018721Y000733D01*
X018664Y000697D01*
X018606Y000663D01*
X018545Y000634D01*
X018483Y000608D01*
X018419Y000585D01*
X018354Y000567D01*
X018288Y000552D01*
X018221Y000541D01*
X018154Y000534D01*
X018087Y000531D01*
X018019Y000532D01*
X017952Y000537D01*
X017885Y000546D01*
X017819Y000559D01*
X017753Y000575D01*
X017689Y000596D01*
X017626Y000620D01*
X017565Y000648D01*
X017505Y000679D01*
X017447Y000714D01*
X017391Y000753D01*
X017338Y000794D01*
X017287Y000839D01*
X017239Y000886D01*
X017194Y000936D01*
X017152Y000989D01*
X017113Y001044D01*
X017077Y001101D01*
X017045Y001160D01*
X017016Y001221D01*
X016991Y001284D01*
X016969Y001348D01*
X016952Y001413D01*
X016938Y001479D01*
X016928Y001546D01*
X016922Y001614D01*
X016920Y001681D01*
X018174Y011067D02*
X017924Y011317D01*
X017924Y011817D01*
X018174Y012067D01*
X017924Y012317D01*
X017924Y012817D01*
X018174Y013067D01*
X018674Y013067D01*
X018924Y012817D01*
X018924Y012317D01*
X018674Y012067D01*
X018924Y011817D01*
X018924Y011317D01*
X018674Y011067D01*
X018174Y011067D01*
X018174Y012067D02*
X018674Y012067D01*
X018674Y013067D02*
X018924Y013317D01*
X018924Y013817D01*
X018674Y014067D01*
X018924Y014317D01*
X018924Y014817D01*
X018674Y015067D01*
X018924Y015317D01*
X018924Y015817D01*
X018674Y016067D01*
X018174Y016067D01*
X017924Y015817D01*
X017924Y015317D01*
X018174Y015067D01*
X018674Y015067D01*
X018174Y015067D02*
X017924Y014817D01*
X017924Y014317D01*
X018174Y014067D01*
X018674Y014067D01*
X018174Y014067D02*
X017924Y013817D01*
X017924Y013317D01*
X018174Y013067D01*
X018174Y016067D02*
X017924Y016317D01*
X017924Y016817D01*
X018174Y017067D01*
X017924Y017317D01*
X017924Y017817D01*
X018174Y018067D01*
X017924Y018317D01*
X017924Y018817D01*
X018174Y019067D01*
X018674Y019067D01*
X018924Y018817D01*
X018924Y018317D01*
X018674Y018067D01*
X018924Y017817D01*
X018924Y017317D01*
X018674Y017067D01*
X018924Y016817D01*
X018924Y016317D01*
X018674Y016067D01*
X018674Y017067D02*
X018174Y017067D01*
X018174Y018067D02*
X018674Y018067D01*
X015592Y018661D02*
X015562Y018696D01*
X015531Y018729D01*
X015496Y018759D01*
X015460Y018786D01*
X015422Y018810D01*
X015382Y018832D01*
X015340Y018850D01*
X015297Y018866D01*
X015253Y018878D01*
X015209Y018886D01*
X015163Y018891D01*
X015118Y018893D01*
X015073Y018891D01*
X015027Y018886D01*
X014983Y018878D01*
X014939Y018866D01*
X014896Y018850D01*
X014854Y018832D01*
X014814Y018810D01*
X014776Y018786D01*
X014740Y018759D01*
X014705Y018729D01*
X014674Y018696D01*
X014644Y018661D01*
X015118Y017693D02*
X015164Y017695D01*
X015210Y017700D01*
X015256Y017709D01*
X015301Y017721D01*
X015344Y017737D01*
X015386Y017756D01*
X015427Y017779D01*
X015466Y017804D01*
X015502Y017832D01*
X015537Y017863D01*
X015569Y017897D01*
X015598Y017933D01*
X015118Y017693D02*
X015071Y017695D01*
X015023Y017701D01*
X014977Y017710D01*
X014931Y017723D01*
X014887Y017739D01*
X014843Y017759D01*
X014802Y017783D01*
X014763Y017809D01*
X014726Y017839D01*
X014691Y017872D01*
X014659Y017907D01*
X014630Y017944D01*
X013543Y018651D02*
X013513Y018686D01*
X013482Y018719D01*
X013447Y018749D01*
X013411Y018776D01*
X013373Y018800D01*
X013333Y018822D01*
X013291Y018840D01*
X013248Y018856D01*
X013204Y018868D01*
X013160Y018876D01*
X013114Y018881D01*
X013069Y018883D01*
X013024Y018881D01*
X012978Y018876D01*
X012934Y018868D01*
X012890Y018856D01*
X012847Y018840D01*
X012805Y018822D01*
X012765Y018800D01*
X012727Y018776D01*
X012691Y018749D01*
X012656Y018719D01*
X012625Y018686D01*
X012595Y018651D01*
X013069Y017683D02*
X013115Y017685D01*
X013161Y017690D01*
X013207Y017699D01*
X013252Y017711D01*
X013295Y017727D01*
X013337Y017746D01*
X013378Y017769D01*
X013417Y017794D01*
X013453Y017822D01*
X013488Y017853D01*
X013520Y017887D01*
X013549Y017923D01*
X013069Y017683D02*
X013022Y017685D01*
X012974Y017691D01*
X012928Y017700D01*
X012882Y017713D01*
X012838Y017729D01*
X012794Y017749D01*
X012753Y017773D01*
X012714Y017799D01*
X012677Y017829D01*
X012642Y017862D01*
X012610Y017897D01*
X012581Y017934D01*
X011401Y017927D02*
X011151Y017677D01*
X010651Y017677D01*
X010401Y017927D01*
X010151Y017677D01*
X009651Y017677D01*
X009401Y017927D01*
X009401Y018427D01*
X009651Y018677D01*
X010151Y018677D01*
X010401Y018427D01*
X010651Y018677D01*
X011151Y018677D01*
X011401Y018427D01*
X011401Y017927D01*
X010401Y017927D02*
X010401Y018427D01*
X009401Y018427D02*
X009151Y018677D01*
X008651Y018677D01*
X008401Y018427D01*
X008151Y018677D01*
X007651Y018677D01*
X007401Y018427D01*
X007151Y018677D01*
X006651Y018677D01*
X006401Y018427D01*
X006401Y017927D01*
X006651Y017677D01*
X007151Y017677D01*
X007401Y017927D01*
X007401Y018427D01*
X007401Y017927D02*
X007651Y017677D01*
X008151Y017677D01*
X008401Y017927D01*
X008401Y018427D01*
X008401Y017927D02*
X008651Y017677D01*
X009151Y017677D01*
X009401Y017927D01*
X006401Y017927D02*
X006151Y017677D01*
X005651Y017677D01*
X005401Y017927D01*
X005151Y017677D01*
X004651Y017677D01*
X004401Y017927D01*
X004151Y017677D01*
X003651Y017677D01*
X003401Y017927D01*
X003401Y018427D01*
X003651Y018677D01*
X004151Y018677D01*
X004401Y018427D01*
X004651Y018677D01*
X005151Y018677D01*
X005401Y018427D01*
X005651Y018677D01*
X006151Y018677D01*
X006401Y018427D01*
X005401Y018427D02*
X005401Y017927D01*
X004401Y017927D02*
X004401Y018427D01*
X000542Y017941D02*
X000544Y018008D01*
X000550Y018076D01*
X000560Y018143D01*
X000574Y018209D01*
X000591Y018274D01*
X000613Y018338D01*
X000638Y018401D01*
X000667Y018462D01*
X000699Y018521D01*
X000735Y018578D01*
X000774Y018633D01*
X000816Y018686D01*
X000861Y018736D01*
X000909Y018783D01*
X000960Y018828D01*
X001013Y018869D01*
X001069Y018908D01*
X001127Y018943D01*
X001187Y018974D01*
X001248Y019002D01*
X001311Y019026D01*
X001375Y019047D01*
X001441Y019063D01*
X001507Y019076D01*
X001574Y019085D01*
X001641Y019090D01*
X001709Y019091D01*
X001776Y019088D01*
X001843Y019081D01*
X001910Y019070D01*
X001976Y019055D01*
X002041Y019037D01*
X002105Y019014D01*
X002167Y018988D01*
X002228Y018959D01*
X002286Y018925D01*
X002343Y018889D01*
X002398Y018849D01*
X002450Y018806D01*
X002499Y018760D01*
X002546Y018711D01*
X002590Y018660D01*
X002630Y018606D01*
X002668Y018550D01*
X002702Y018491D01*
X002732Y018431D01*
X002759Y018369D01*
X002783Y018306D01*
X002802Y018241D01*
X002818Y018176D01*
X002830Y018109D01*
X002838Y018042D01*
X002842Y017975D01*
X002842Y017907D01*
X002838Y017840D01*
X002830Y017773D01*
X002818Y017706D01*
X002802Y017641D01*
X002783Y017576D01*
X002759Y017513D01*
X002732Y017451D01*
X002702Y017391D01*
X002668Y017332D01*
X002630Y017276D01*
X002590Y017222D01*
X002546Y017171D01*
X002499Y017122D01*
X002450Y017076D01*
X002398Y017033D01*
X002343Y016993D01*
X002286Y016957D01*
X002228Y016923D01*
X002167Y016894D01*
X002105Y016868D01*
X002041Y016845D01*
X001976Y016827D01*
X001910Y016812D01*
X001843Y016801D01*
X001776Y016794D01*
X001709Y016791D01*
X001641Y016792D01*
X001574Y016797D01*
X001507Y016806D01*
X001441Y016819D01*
X001375Y016835D01*
X001311Y016856D01*
X001248Y016880D01*
X001187Y016908D01*
X001127Y016939D01*
X001069Y016974D01*
X001013Y017013D01*
X000960Y017054D01*
X000909Y017099D01*
X000861Y017146D01*
X000816Y017196D01*
X000774Y017249D01*
X000735Y017304D01*
X000699Y017361D01*
X000667Y017420D01*
X000638Y017481D01*
X000613Y017544D01*
X000591Y017608D01*
X000574Y017673D01*
X000560Y017739D01*
X000550Y017806D01*
X000544Y017874D01*
X000542Y017941D01*
X000601Y015915D02*
X000651Y015915D01*
X000601Y015915D02*
X000601Y015715D01*
X000651Y015715D01*
X001551Y015715D02*
X001601Y015715D01*
X001601Y015915D01*
X001551Y015915D01*
X002229Y015240D02*
X002729Y015240D01*
X002979Y014990D01*
X002979Y014490D01*
X002729Y014240D01*
X002979Y013990D01*
X002979Y013490D01*
X002729Y013240D01*
X002229Y013240D01*
X001979Y013490D01*
X001979Y013990D01*
X002229Y014240D01*
X001979Y014490D01*
X001979Y014990D01*
X002229Y015240D01*
X002229Y014240D02*
X002729Y014240D01*
X001723Y014246D02*
X001721Y014201D01*
X001716Y014155D01*
X001708Y014111D01*
X001696Y014067D01*
X001680Y014024D01*
X001662Y013982D01*
X001640Y013942D01*
X001616Y013904D01*
X001589Y013868D01*
X001559Y013833D01*
X001526Y013802D01*
X001491Y013772D01*
X001723Y014246D02*
X001721Y014291D01*
X001716Y014337D01*
X001708Y014381D01*
X001696Y014425D01*
X001680Y014468D01*
X001662Y014510D01*
X001640Y014550D01*
X001616Y014588D01*
X001589Y014624D01*
X001559Y014659D01*
X001526Y014690D01*
X001491Y014720D01*
X000523Y014246D02*
X000525Y014200D01*
X000530Y014154D01*
X000539Y014108D01*
X000551Y014063D01*
X000567Y014020D01*
X000586Y013978D01*
X000609Y013937D01*
X000634Y013898D01*
X000662Y013862D01*
X000693Y013827D01*
X000727Y013795D01*
X000763Y013766D01*
X000523Y014246D02*
X000525Y014293D01*
X000531Y014341D01*
X000540Y014387D01*
X000553Y014433D01*
X000569Y014477D01*
X000589Y014521D01*
X000613Y014562D01*
X000639Y014601D01*
X000669Y014638D01*
X000702Y014673D01*
X000737Y014705D01*
X000774Y014734D01*
X000651Y010836D02*
X000601Y010836D01*
X000601Y010636D01*
X000651Y010636D01*
X001551Y010636D02*
X001601Y010636D01*
X001601Y010836D01*
X001551Y010836D01*
X001986Y004131D02*
X002306Y004131D01*
X002306Y003911D01*
X002306Y003231D02*
X002306Y003011D01*
X001986Y003011D01*
D14*
X006245Y011398D03*
X008395Y011398D03*
D15*
X006279Y012414D02*
X006279Y014414D01*
X011279Y014414D01*
X011279Y012414D01*
X006279Y012414D01*
X001923Y014246D02*
X001921Y014190D01*
X001915Y014134D01*
X001905Y014079D01*
X001892Y014025D01*
X001874Y013971D01*
X001853Y013919D01*
X001829Y013869D01*
X001800Y013820D01*
X001769Y013774D01*
X001734Y013730D01*
X001697Y013688D01*
X001656Y013650D01*
X001613Y013614D01*
X001568Y013581D01*
X001520Y013551D01*
X001923Y014246D02*
X001921Y014299D01*
X001916Y014353D01*
X001907Y014405D01*
X001895Y014457D01*
X001879Y014508D01*
X001860Y014558D01*
X001837Y014607D01*
X001811Y014654D01*
X001783Y014699D01*
X001751Y014742D01*
X001717Y014782D01*
X001679Y014821D01*
X001640Y014857D01*
X000323Y014246D02*
X000325Y014192D01*
X000330Y014138D01*
X000339Y014085D01*
X000352Y014032D01*
X000368Y013981D01*
X000388Y013931D01*
X000411Y013882D01*
X000437Y013834D01*
X000466Y013789D01*
X000499Y013746D01*
X000534Y013705D01*
X000572Y013666D01*
X000612Y013630D01*
X000655Y013597D01*
X000700Y013567D01*
X000747Y013540D01*
X000323Y014246D02*
X000325Y014300D01*
X000330Y014353D01*
X000339Y014407D01*
X000352Y014459D01*
X000368Y014510D01*
X000388Y014561D01*
X000410Y014610D01*
X000436Y014657D01*
X000466Y014702D01*
X000498Y014745D01*
X000533Y014786D01*
X000571Y014825D01*
X000611Y014861D01*
X005142Y004299D02*
X004866Y003807D01*
X005417Y003807D01*
X005142Y004299D01*
X012919Y011972D02*
X012921Y011992D01*
X012926Y012012D01*
X012936Y012030D01*
X012948Y012047D01*
X012963Y012061D01*
X012981Y012071D01*
X013000Y012079D01*
X013020Y012083D01*
X013040Y012083D01*
X013060Y012079D01*
X013079Y012071D01*
X013097Y012061D01*
X013112Y012047D01*
X013124Y012030D01*
X013134Y012012D01*
X013139Y011992D01*
X013141Y011972D01*
X013139Y011952D01*
X013134Y011932D01*
X013124Y011914D01*
X013112Y011897D01*
X013097Y011883D01*
X013079Y011873D01*
X013060Y011865D01*
X013040Y011861D01*
X013020Y011861D01*
X013000Y011865D01*
X012981Y011873D01*
X012963Y011883D01*
X012948Y011897D01*
X012936Y011914D01*
X012926Y011932D01*
X012921Y011952D01*
X012919Y011972D01*
X013764Y018680D02*
X013734Y018728D01*
X013701Y018773D01*
X013665Y018816D01*
X013627Y018857D01*
X013585Y018894D01*
X013541Y018929D01*
X013495Y018960D01*
X013446Y018989D01*
X013396Y019013D01*
X013344Y019034D01*
X013290Y019052D01*
X013236Y019065D01*
X013181Y019075D01*
X013125Y019081D01*
X013069Y019083D01*
X013016Y019081D01*
X012962Y019076D01*
X012910Y019067D01*
X012858Y019055D01*
X012807Y019039D01*
X012757Y019020D01*
X012708Y018997D01*
X012661Y018971D01*
X012616Y018943D01*
X012573Y018911D01*
X012533Y018877D01*
X012494Y018839D01*
X012458Y018800D01*
X013069Y017483D02*
X013123Y017485D01*
X013177Y017490D01*
X013230Y017499D01*
X013283Y017512D01*
X013334Y017528D01*
X013384Y017548D01*
X013433Y017571D01*
X013481Y017597D01*
X013526Y017626D01*
X013569Y017659D01*
X013610Y017694D01*
X013649Y017732D01*
X013685Y017772D01*
X013718Y017815D01*
X013748Y017860D01*
X013775Y017907D01*
X013069Y017483D02*
X013015Y017485D01*
X012962Y017490D01*
X012908Y017499D01*
X012856Y017512D01*
X012805Y017528D01*
X012754Y017548D01*
X012705Y017570D01*
X012658Y017596D01*
X012613Y017626D01*
X012570Y017658D01*
X012529Y017693D01*
X012490Y017731D01*
X012454Y017771D01*
X015118Y017493D02*
X015172Y017495D01*
X015226Y017500D01*
X015279Y017509D01*
X015332Y017522D01*
X015383Y017538D01*
X015433Y017558D01*
X015482Y017581D01*
X015530Y017607D01*
X015575Y017636D01*
X015618Y017669D01*
X015659Y017704D01*
X015698Y017742D01*
X015734Y017782D01*
X015767Y017825D01*
X015797Y017870D01*
X015824Y017917D01*
X015813Y018690D02*
X015783Y018738D01*
X015750Y018783D01*
X015714Y018826D01*
X015676Y018867D01*
X015634Y018904D01*
X015590Y018939D01*
X015544Y018970D01*
X015495Y018999D01*
X015445Y019023D01*
X015393Y019044D01*
X015339Y019062D01*
X015285Y019075D01*
X015230Y019085D01*
X015174Y019091D01*
X015118Y019093D01*
X015065Y019091D01*
X015011Y019086D01*
X014959Y019077D01*
X014907Y019065D01*
X014856Y019049D01*
X014806Y019030D01*
X014757Y019007D01*
X014710Y018981D01*
X014665Y018953D01*
X014622Y018921D01*
X014582Y018887D01*
X014543Y018849D01*
X014507Y018810D01*
X014503Y017781D02*
X014539Y017741D01*
X014578Y017703D01*
X014619Y017668D01*
X014662Y017636D01*
X014707Y017606D01*
X014754Y017580D01*
X014803Y017558D01*
X014854Y017538D01*
X014905Y017522D01*
X014957Y017509D01*
X015011Y017500D01*
X015064Y017495D01*
X015118Y017493D01*
D16*
X005142Y004319D03*
D17*
X001603Y005748D02*
X001603Y005901D01*
X001603Y005824D02*
X001143Y005824D01*
X001143Y005748D02*
X001143Y005901D01*
X001220Y006055D02*
X001143Y006131D01*
X001143Y006285D01*
X001220Y006361D01*
X001220Y006515D02*
X001143Y006592D01*
X001143Y006745D01*
X001220Y006822D01*
X001296Y006822D01*
X001603Y006515D01*
X001603Y006822D01*
X001526Y006361D02*
X001603Y006285D01*
X001603Y006131D01*
X001526Y006055D01*
X001220Y006055D01*
X011759Y017692D02*
X012120Y017692D01*
X012120Y017932D01*
X012120Y018060D02*
X011759Y018060D01*
X011759Y018300D01*
X011759Y018428D02*
X011759Y018609D01*
X011819Y018669D01*
X012060Y018669D01*
X012120Y018609D01*
X012120Y018428D01*
X011759Y018428D01*
X012120Y018300D02*
X012120Y018060D01*
X011939Y018060D02*
X011939Y018180D01*
X011879Y018797D02*
X011759Y018917D01*
X012120Y018917D01*
X012120Y018797D02*
X012120Y019037D01*
X016120Y018971D02*
X016120Y018851D01*
X016180Y018791D01*
X016180Y018663D02*
X016120Y018603D01*
X016120Y018423D01*
X016480Y018423D01*
X016480Y018603D01*
X016420Y018663D01*
X016180Y018663D01*
X016120Y018971D02*
X016180Y019031D01*
X016240Y019031D01*
X016480Y018791D01*
X016480Y019031D01*
X016480Y018295D02*
X016480Y018055D01*
X016120Y018055D01*
X016120Y018295D01*
X016300Y018175D02*
X016300Y018055D01*
X016480Y017926D02*
X016480Y017686D01*
X016120Y017686D01*
D18*
X016337Y012287D02*
X012872Y012287D01*
X012715Y012129D01*
X012715Y008665D01*
X012872Y008507D01*
X016337Y008507D01*
X016494Y008665D01*
X016494Y012129D01*
X016337Y012287D01*
X017479Y001681D02*
X017481Y001729D01*
X017487Y001777D01*
X017497Y001824D01*
X017510Y001870D01*
X017528Y001915D01*
X017548Y001959D01*
X017573Y002001D01*
X017601Y002040D01*
X017631Y002077D01*
X017665Y002111D01*
X017702Y002143D01*
X017740Y002172D01*
X017781Y002197D01*
X017824Y002219D01*
X017869Y002237D01*
X017915Y002251D01*
X017962Y002262D01*
X018010Y002269D01*
X018058Y002272D01*
X018106Y002271D01*
X018154Y002266D01*
X018202Y002257D01*
X018248Y002245D01*
X018293Y002228D01*
X018337Y002208D01*
X018379Y002185D01*
X018419Y002158D01*
X018457Y002128D01*
X018492Y002095D01*
X018524Y002059D01*
X018554Y002021D01*
X018580Y001980D01*
X018602Y001937D01*
X018622Y001893D01*
X018637Y001848D01*
X018649Y001801D01*
X018657Y001753D01*
X018661Y001705D01*
X018661Y001657D01*
X018657Y001609D01*
X018649Y001561D01*
X018637Y001514D01*
X018622Y001469D01*
X018602Y001425D01*
X018580Y001382D01*
X018554Y001341D01*
X018524Y001303D01*
X018492Y001267D01*
X018457Y001234D01*
X018419Y001204D01*
X018379Y001177D01*
X018337Y001154D01*
X018293Y001134D01*
X018248Y001117D01*
X018202Y001105D01*
X018154Y001096D01*
X018106Y001091D01*
X018058Y001090D01*
X018010Y001093D01*
X017962Y001100D01*
X017915Y001111D01*
X017869Y001125D01*
X017824Y001143D01*
X017781Y001165D01*
X017740Y001190D01*
X017702Y001219D01*
X017665Y001251D01*
X017631Y001285D01*
X017601Y001322D01*
X017573Y001361D01*
X017548Y001403D01*
X017528Y001447D01*
X017510Y001492D01*
X017497Y001538D01*
X017487Y001585D01*
X017481Y001633D01*
X017479Y001681D01*
X007211Y001642D02*
X007213Y001676D01*
X007219Y001711D01*
X007228Y001744D01*
X007242Y001776D01*
X007258Y001806D01*
X007278Y001834D01*
X007301Y001860D01*
X007327Y001883D01*
X007355Y001903D01*
X007385Y001919D01*
X007417Y001933D01*
X007450Y001942D01*
X007485Y001948D01*
X007519Y001950D01*
X007553Y001948D01*
X007588Y001942D01*
X007621Y001933D01*
X007653Y001919D01*
X007683Y001903D01*
X007711Y001883D01*
X007737Y001860D01*
X007760Y001834D01*
X007780Y001806D01*
X007796Y001776D01*
X007810Y001744D01*
X007819Y001711D01*
X007825Y001676D01*
X007827Y001642D01*
X007825Y001608D01*
X007819Y001573D01*
X007810Y001540D01*
X007796Y001508D01*
X007780Y001478D01*
X007760Y001450D01*
X007737Y001424D01*
X007711Y001401D01*
X007683Y001381D01*
X007653Y001365D01*
X007621Y001351D01*
X007588Y001342D01*
X007553Y001336D01*
X007519Y001334D01*
X007485Y001336D01*
X007450Y001342D01*
X007417Y001351D01*
X007385Y001365D01*
X007355Y001381D01*
X007327Y001401D01*
X007301Y001424D01*
X007278Y001450D01*
X007258Y001478D01*
X007242Y001508D01*
X007228Y001540D01*
X007219Y001573D01*
X007213Y001608D01*
X007211Y001642D01*
X003383Y005597D02*
X000803Y005597D01*
X000803Y006997D01*
X003383Y006997D01*
X003383Y005597D01*
X001101Y017941D02*
X001103Y017989D01*
X001109Y018037D01*
X001119Y018084D01*
X001132Y018130D01*
X001150Y018175D01*
X001170Y018219D01*
X001195Y018261D01*
X001223Y018300D01*
X001253Y018337D01*
X001287Y018371D01*
X001324Y018403D01*
X001362Y018432D01*
X001403Y018457D01*
X001446Y018479D01*
X001491Y018497D01*
X001537Y018511D01*
X001584Y018522D01*
X001632Y018529D01*
X001680Y018532D01*
X001728Y018531D01*
X001776Y018526D01*
X001824Y018517D01*
X001870Y018505D01*
X001915Y018488D01*
X001959Y018468D01*
X002001Y018445D01*
X002041Y018418D01*
X002079Y018388D01*
X002114Y018355D01*
X002146Y018319D01*
X002176Y018281D01*
X002202Y018240D01*
X002224Y018197D01*
X002244Y018153D01*
X002259Y018108D01*
X002271Y018061D01*
X002279Y018013D01*
X002283Y017965D01*
X002283Y017917D01*
X002279Y017869D01*
X002271Y017821D01*
X002259Y017774D01*
X002244Y017729D01*
X002224Y017685D01*
X002202Y017642D01*
X002176Y017601D01*
X002146Y017563D01*
X002114Y017527D01*
X002079Y017494D01*
X002041Y017464D01*
X002001Y017437D01*
X001959Y017414D01*
X001915Y017394D01*
X001870Y017377D01*
X001824Y017365D01*
X001776Y017356D01*
X001728Y017351D01*
X001680Y017350D01*
X001632Y017353D01*
X001584Y017360D01*
X001537Y017371D01*
X001491Y017385D01*
X001446Y017403D01*
X001403Y017425D01*
X001362Y017450D01*
X001324Y017479D01*
X001287Y017511D01*
X001253Y017545D01*
X001223Y017582D01*
X001195Y017621D01*
X001170Y017663D01*
X001150Y017707D01*
X001132Y017752D01*
X001119Y017798D01*
X001109Y017845D01*
X001103Y017893D01*
X001101Y017941D01*
D19*
X015993Y003875D02*
X015993Y003800D01*
X016068Y003725D01*
X016218Y003725D01*
X016293Y003650D01*
X016293Y003575D01*
X016218Y003500D01*
X016068Y003500D01*
X015993Y003575D01*
X015993Y003875D02*
X016068Y003950D01*
X016218Y003950D01*
X016293Y003875D01*
X016454Y003950D02*
X016679Y003950D01*
X016754Y003875D01*
X016754Y003725D01*
X016679Y003650D01*
X016454Y003650D01*
X016454Y003500D02*
X016454Y003950D01*
X016914Y003950D02*
X017064Y003950D01*
X016989Y003950D02*
X016989Y003500D01*
X016914Y003500D02*
X017064Y003500D01*
D20*
X007675Y001642D02*
X007362Y001642D01*
X007519Y001798D02*
X007519Y001486D01*
M02*
